<svg id="Group_1915" data-name="Group 1915" xmlns="http://www.w3.org/2000/svg" width="23.634" height="23.267" viewBox="0 0 23.634 23.267">
  <g id="credit-card-front" transform="translate(0 2.401)">
    <path id="Path_422" data-name="Path 422" d="M21.008,32H2.626A2.626,2.626,0,0,0,0,34.626v13.13a2.626,2.626,0,0,0,2.626,2.626H21.008a2.626,2.626,0,0,0,2.626-2.626V34.626A2.627,2.627,0,0,0,21.008,32ZM2.589,41.847a.656.656,0,0,1,.656-.656H7.185a.656.656,0,0,1,.656.656V43.16a.657.657,0,0,1-.656.656H3.246a.657.657,0,0,1-.656-.656V41.847Zm3.976,5.58a.329.329,0,0,1-.328.328H2.954a.329.329,0,0,1-.328-.328v-.656a.328.328,0,0,1,.328-.328H6.237a.328.328,0,0,1,.328.328Zm7.878,0a.328.328,0,0,1-.328.328H8.206a.329.329,0,0,1-.328-.328v-.656a.328.328,0,0,1,.328-.328h5.872a.328.328,0,0,1,.328.328Zm1.313-4.267a.657.657,0,0,1-.656.656H9.847a.657.657,0,0,1-.656-.656V41.847a.65.65,0,0,1,.62-.656h5.252a.656.656,0,0,1,.656.656Zm5.252,0a.657.657,0,0,1-.656.656H17.725a.658.658,0,0,1-.656-.656V41.847a.656.656,0,0,1,.656-.656h2.626a.658.658,0,0,1,.656.656Zm0-5.252a.658.658,0,0,1-.656.656H16.412a.657.657,0,0,1-.656-.656V35.282a.656.656,0,0,1,.656-.656h3.939a.658.658,0,0,1,.656.656Z" transform="translate(0 -32)" fill="#fff"/>
    <path id="Path_423" data-name="Path 423" d="M63.1,256.656a.656.656,0,0,1,.656-.657H67.7a.656.656,0,0,1,.656.657v1.313a.657.657,0,0,1-.656.656H63.756a.657.657,0,0,1-.656-.656Zm13.167,1.313a.657.657,0,0,1-.656.656H70.358a.657.657,0,0,1-.656-.656v-1.313a.65.65,0,0,1,.62-.657h5.252a.656.656,0,0,1,.656.657Zm5.252,0a.657.657,0,0,1-.656.656H78.236a.658.658,0,0,1-.656-.656v-1.313a.656.656,0,0,1,.656-.657h2.626a.658.658,0,0,1,.656.657Z" transform="translate(-60.511 -246.809)" fill="#fff" opacity="0.4"/>
  </g>
  <rect id="Rectangle_257" data-name="Rectangle 257" width="23.267" height="23.267" transform="translate(0.184)" fill="none"/>
</svg>
