<svg xmlns="http://www.w3.org/2000/svg" width="492.266" height="384.717" viewBox="0 0 492.266 384.717">
  <g id="Group_1926" data-name="Group 1926" transform="translate(50.815 28.618)">
    <g id="Group_1902" data-name="Group 1902" transform="translate(225.476 282.997) rotate(-149)" opacity="0.3">
      <line id="Line_80" data-name="Line 80" x1="47.18" y1="18.653" transform="matrix(0.946, 0.326, -0.326, 0.946, 156.831, 90.59)" fill="none" stroke="#0581ff" stroke-width="1" opacity="0.25"/>
      <line id="Line_81" data-name="Line 81" x1="12.069" y2="36.208" transform="matrix(0.946, 0.326, -0.326, 0.946, 168.619, 56.355)" fill="none" stroke="#0581ff" stroke-width="1" opacity="0.25"/>
      <line id="Line_82" data-name="Line 82" x2="51.569" y2="2.194" transform="matrix(0.946, 0.326, -0.326, 0.946, 180.031, 60.284)" fill="none" stroke="#0581ff" stroke-width="1" opacity="0.25"/>
      <line id="Line_83" data-name="Line 83" y1="23.041" x2="55.957" transform="matrix(0.946, 0.326, -0.326, 0.946, 187.532, 38.498)" fill="none" stroke="#0581ff" stroke-width="1" opacity="0.25"/>
      <line id="Line_84" data-name="Line 84" x1="68.027" y2="14.264" transform="matrix(0.946, 0.326, -0.326, 0.946, 245.085, 43.23)" fill="none" stroke="#0581ff" stroke-width="1" opacity="0.25"/>
      <line id="Line_85" data-name="Line 85" x1="32.916" y1="10.972" transform="matrix(0.946, 0.326, -0.326, 0.946, 281.855, 44.287)" fill="none" stroke="#0581ff" stroke-width="1" opacity="0.25"/>
      <line id="Line_87" data-name="Line 87" y1="46.083" x2="28.527" transform="matrix(0.946, 0.326, -0.326, 0.946, 294.783, 0)" fill="none" stroke="#0581ff" stroke-width="1" opacity="0.25"/>
      <line id="Line_93" data-name="Line 93" y1="30.722" x2="25.236" transform="matrix(0.946, 0.326, -0.326, 0.946, 264.249, 105.529)" fill="none" stroke="#0581ff" stroke-width="1" opacity="0.25"/>
      <line id="Line_94" data-name="Line 94" x1="59.249" y2="8.778" transform="matrix(0.946, 0.326, -0.326, 0.946, 198.226, 115.287)" fill="none" stroke="#0581ff" stroke-width="1" opacity="0.25"/>
      <line id="Line_43" data-name="Line 43" x1="57.055" y1="19.75" transform="matrix(0.946, 0.326, -0.326, 0.946, 103.185, 182.359)" fill="none" stroke="#0581ff" stroke-width="1"/>
      <line id="Line_44" data-name="Line 44" x1="39.499" y2="32.916" transform="matrix(0.946, 0.326, -0.326, 0.946, 113.901, 151.236)" fill="none" stroke="#0581ff" stroke-width="1"/>
      <line id="Line_45" data-name="Line 45" x1="68.027" y1="25.236" transform="matrix(0.946, 0.326, -0.326, 0.946, 95.144, 118.087)" fill="none" stroke="#0581ff" stroke-width="1"/>
      <line id="Line_46" data-name="Line 46" y1="6.583" x2="70.221" transform="matrix(0.946, 0.326, -0.326, 0.946, 36.789, 159.497)" fill="none" stroke="#0581ff" stroke-width="1"/>
      <line id="Line_47" data-name="Line 47" x2="91.068" y2="48.277" transform="matrix(0.946, 0.326, -0.326, 0.946, 32.796, 107.063)" fill="none" stroke="#0581ff" stroke-width="1"/>
      <line id="Line_48" data-name="Line 48" x1="20.847" y1="54.86" transform="matrix(0.946, 0.326, -0.326, 0.946, 32.796, 107.063)" fill="none" stroke="#0581ff" stroke-width="1"/>
      <line id="Line_50" data-name="Line 50" x1="96.554" y2="27.43" transform="matrix(0.946, 0.326, -0.326, 0.946, 104.074, 92.152)" fill="none" stroke="#0581ff" stroke-width="1"/>
      <line id="Line_51" data-name="Line 51" x1="17.555" y1="52.666" transform="matrix(0.946, 0.326, -0.326, 0.946, 151.249, 164.096)" fill="none" stroke="#0581ff" stroke-width="1"/>
      <line id="Line_52" data-name="Line 52" x1="28.527" y2="52.666" transform="matrix(0.946, 0.326, -0.326, 0.946, 168.395, 114.299)" fill="none" stroke="#0581ff" stroke-width="1"/>
      <line id="Line_53" data-name="Line 53" y1="29.625" x2="30.722" transform="matrix(0.946, 0.326, -0.326, 0.946, 160.346, 191.597)" fill="none" stroke="#0581ff" stroke-width="1"/>
      <line id="Line_55" data-name="Line 55" y1="51.569" x2="16.458" transform="matrix(0.946, 0.326, -0.326, 0.946, 212.157, 74.828)" fill="none" stroke="#0581ff" stroke-width="1"/>
      <line id="Line_56" data-name="Line 56" x2="21.944" y2="73.513" transform="matrix(0.946, 0.326, -0.326, 0.946, 195.368, 123.587)" fill="none" stroke="#0581ff" stroke-width="1"/>
      <line id="Line_57" data-name="Line 57" x1="68.027" y1="10.972" transform="matrix(0.946, 0.326, -0.326, 0.946, 227.718, 80.186)" fill="none" stroke="#0581ff" stroke-width="1"/>
      <line id="Line_58" data-name="Line 58" x1="84.485" y2="40.597" transform="matrix(0.946, 0.326, -0.326, 0.946, 208.585, 85.202)" fill="none" stroke="#0581ff" stroke-width="1"/>
      <line id="Line_59" data-name="Line 59" x1="74.61" y2="40.597" transform="matrix(0.946, 0.326, -0.326, 0.946, 240.935, 41.801)" fill="none" stroke="#0581ff" stroke-width="1"/>
      <line id="Line_60" data-name="Line 60" y1="51.569" x2="4.389" transform="matrix(0.946, 0.326, -0.326, 0.946, 305.256, 63.948)" fill="none" stroke="#0581ff" stroke-width="1"/>
      <g id="Ellipse_134" data-name="Ellipse 134" transform="matrix(0.946, 0.326, -0.326, 0.946, 61.583, 213.871)" fill="#0581ff" stroke="#0581ff" stroke-width="1">
        <circle cx="3.292" cy="3.292" r="3.292" stroke="none"/>
        <circle cx="3.292" cy="3.292" r="2.792" fill="none"/>
      </g>
      <g id="Ellipse_135" data-name="Ellipse 135" transform="matrix(0.946, 0.326, -0.326, 0.946, 31.908, 161.878)" fill="#0581ff" stroke="#0581ff" stroke-width="1">
        <circle cx="3.292" cy="3.292" r="3.292" stroke="none"/>
        <circle cx="3.292" cy="3.292" r="2.792" fill="none"/>
      </g>
      <g id="Ellipse_136" data-name="Ellipse 136" transform="matrix(0.946, 0.326, -0.326, 0.946, 92.406, 114.244)" fill="#0581ff" stroke="#0581ff" stroke-width="1">
        <circle cx="3.292" cy="3.292" r="3.292" stroke="none"/>
        <circle cx="3.292" cy="3.292" r="2.792" fill="none"/>
      </g>
      <g id="Ellipse_144" data-name="Ellipse 144" transform="matrix(0.946, 0.326, -0.326, 0.946, 225.338, 75.305)" fill="#0581ff" stroke="#0581ff" stroke-width="1">
        <circle cx="3.292" cy="3.292" r="3.292" stroke="none"/>
        <circle cx="3.292" cy="3.292" r="2.792" fill="none"/>
      </g>
      <g id="Ellipse_160" data-name="Ellipse 160" transform="matrix(0.946, 0.326, -0.326, 0.946, 237.703, 52.873)" fill="#0581ff" stroke="#0581ff" stroke-width="1" opacity="0.5">
        <circle cx="3.292" cy="3.292" r="3.292" stroke="none"/>
        <circle cx="3.292" cy="3.292" r="2.792" fill="none"/>
      </g>
      <g id="Ellipse_156" data-name="Ellipse 156" transform="matrix(0.946, 0.326, -0.326, 0.946, 177.293, 56.441)" fill="#0581ff" stroke="#0581ff" stroke-width="1" opacity="0.5">
        <circle cx="3.292" cy="3.292" r="3.292" stroke="none"/>
        <circle cx="3.292" cy="3.292" r="2.792" fill="none"/>
      </g>
      <g id="Ellipse_140" data-name="Ellipse 140" transform="matrix(0.946, 0.326, -0.326, 0.946, 100.446, 178.515)" fill="#0581ff" stroke="#0581ff" stroke-width="1">
        <circle cx="3.292" cy="3.292" r="3.292" stroke="none"/>
        <circle cx="3.292" cy="3.292" r="2.792" fill="none"/>
      </g>
      <g id="Ellipse_141" data-name="Ellipse 141" transform="matrix(0.946, 0.326, -0.326, 0.946, 148.51, 160.252)" fill="#0581ff" stroke="#0581ff" stroke-width="1">
        <circle cx="3.292" cy="3.292" r="3.292" stroke="none"/>
        <circle cx="3.292" cy="3.292" r="2.792" fill="none"/>
      </g>
      <g id="Ellipse_137" data-name="Ellipse 137" transform="matrix(0.946, 0.326, -0.326, 0.946, 147.963, 215.764)" fill="#0581ff" stroke="#0581ff" stroke-width="1">
        <circle cx="3.292" cy="3.292" r="3.292" stroke="none"/>
        <circle cx="3.292" cy="3.292" r="2.792" fill="none"/>
      </g>
      <g id="Ellipse_143" data-name="Ellipse 143" transform="matrix(0.946, 0.326, -0.326, 0.946, 189.445, 196.395)" fill="#0581ff" stroke="#0581ff" stroke-width="1">
        <circle cx="3.292" cy="3.292" r="3.292" stroke="none"/>
        <circle cx="3.292" cy="3.292" r="2.792" fill="none"/>
      </g>
      <g id="Ellipse_138" data-name="Ellipse 138" transform="matrix(0.946, 0.326, -0.326, 0.946, 192.63, 119.743)" fill="#0581ff" stroke="#0581ff" stroke-width="1">
        <circle cx="3.292" cy="3.292" r="3.292" stroke="none"/>
        <circle cx="3.292" cy="3.292" r="2.792" fill="none"/>
      </g>
      <g id="Ellipse_157" data-name="Ellipse 157" transform="matrix(0.946, 0.326, -0.326, 0.946, 154.45, 85.709)" fill="#0581ff" stroke="#0581ff" stroke-width="1" opacity="0.5">
        <circle cx="3.292" cy="3.292" r="3.292" stroke="none"/>
        <circle cx="3.292" cy="3.292" r="2.792" fill="none"/>
      </g>
      <g id="Ellipse_167" data-name="Ellipse 167" transform="matrix(0.946, 0.326, -0.326, 0.946, 206.485, 227.792)" fill="#0581ff" stroke="#0581ff" stroke-width="1" opacity="0.5">
        <circle cx="3.292" cy="3.292" r="3.292" stroke="none"/>
        <circle cx="3.292" cy="3.292" r="2.792" fill="none"/>
      </g>
      <g id="Ellipse_168" data-name="Ellipse 168" transform="matrix(0.946, 0.326, -0.326, 0.946, 116.464, 243.212)" fill="#0581ff" stroke="#0581ff" stroke-width="1" opacity="0.5">
        <circle cx="3.292" cy="3.292" r="3.292" stroke="none"/>
        <circle cx="3.292" cy="3.292" r="2.792" fill="none"/>
      </g>
      <g id="Ellipse_169" data-name="Ellipse 169" transform="matrix(0.946, 0.326, -0.326, 0.946, 22.16, 200.297)" fill="#0581ff" stroke="#0581ff" stroke-width="1" opacity="0.5">
        <circle cx="3.292" cy="3.292" r="3.292" stroke="none"/>
        <circle cx="3.292" cy="3.292" r="2.792" fill="none"/>
      </g>
      <g id="Ellipse_170" data-name="Ellipse 170" transform="matrix(0.946, 0.326, -0.326, 0.946, 6.907, 163.713)" fill="#0581ff" stroke="#0581ff" stroke-width="1" opacity="0.5">
        <circle cx="3.292" cy="3.292" r="3.292" stroke="none"/>
        <circle cx="3.292" cy="3.292" r="2.792" fill="none"/>
      </g>
      <g id="Ellipse_145" data-name="Ellipse 145" transform="matrix(0.946, 0.326, -0.326, 0.946, 285.372, 109.901)" fill="#0581ff" stroke="#0581ff" stroke-width="1">
        <circle cx="3.292" cy="3.292" r="3.292" stroke="none"/>
        <circle cx="3.292" cy="3.292" r="2.792" fill="none"/>
      </g>
      <g id="Ellipse_158" data-name="Ellipse 158" transform="matrix(0.946, 0.326, -0.326, 0.946, 251.509, 130.733)" fill="#0581ff" stroke="#0581ff" stroke-width="1" opacity="0.5">
        <circle cx="3.292" cy="3.292" r="3.292" stroke="none"/>
        <circle cx="3.292" cy="3.292" r="2.792" fill="none"/>
      </g>
      <g id="Ellipse_142" data-name="Ellipse 142" transform="matrix(0.946, 0.326, -0.326, 0.946, 309.1, 61.21)" fill="#0581ff" stroke="#0581ff" stroke-width="1">
        <circle cx="3.292" cy="3.292" r="3.292" stroke="none"/>
        <circle cx="3.292" cy="3.292" r="2.792" fill="none"/>
      </g>
      <g id="Ellipse_159" data-name="Ellipse 159" transform="matrix(0.946, 0.326, -0.326, 0.946, 278.08, 40.085)" fill="#0581ff" stroke="#0581ff" stroke-width="1" opacity="0.5">
        <circle cx="3.292" cy="3.292" r="3.292" stroke="none"/>
        <circle cx="3.292" cy="3.292" r="2.792" fill="none"/>
      </g>
      <g id="Ellipse_161" data-name="Ellipse 161" transform="matrix(0.946, 0.326, -0.326, 0.946, 321.093, 6.158)" fill="#0581ff" stroke="#0581ff" stroke-width="1" opacity="0.5">
        <circle cx="3.292" cy="3.292" r="3.292" stroke="none"/>
        <circle cx="3.292" cy="3.292" r="2.792" fill="none"/>
      </g>
      <g id="Ellipse_139" data-name="Ellipse 139" transform="matrix(0.946, 0.326, -0.326, 0.946, 30.058, 103.219)" fill="#0581ff" stroke="#0581ff" stroke-width="1">
        <circle cx="3.292" cy="3.292" r="3.292" stroke="none"/>
        <circle cx="3.292" cy="3.292" r="2.792" fill="none"/>
      </g>
      <line id="Line_78" data-name="Line 78" x2="44.985" y2="39.499" transform="matrix(0.946, 0.326, -0.326, 0.946, 34.646, 165.721)" fill="none" stroke="#0581ff" stroke-width="1"/>
      <line id="Line_79" data-name="Line 79" y1="46.083" x2="25.236" transform="matrix(0.946, 0.326, -0.326, 0.946, 79.324, 174.143)" fill="none" stroke="#0581ff" stroke-width="1"/>
      <line id="Line_101" data-name="Line 101" x1="26.333" y1="24.139" transform="matrix(0.946, 0.326, -0.326, 0.946, 192.183, 200.239)" fill="none" stroke="#0581ff" stroke-width="1" opacity="0.25"/>
      <line id="Line_102" data-name="Line 102" x1="57.055" y2="7.68" transform="matrix(0.946, 0.326, -0.326, 0.946, 155.276, 213.06)" fill="none" stroke="#0581ff" stroke-width="1" opacity="0.25"/>
      <line id="Line_103" data-name="Line 103" y1="88.874" x2="3.292" transform="matrix(0.946, 0.326, -0.326, 0.946, 148.136, 163.024)" fill="none" stroke="#0581ff" stroke-width="1" opacity="0.25"/>
      <line id="Line_104" data-name="Line 104" x1="36.208" y1="55.957" transform="matrix(0.946, 0.326, -0.326, 0.946, 103.185, 182.359)" fill="none" stroke="#0581ff" stroke-width="1" opacity="0.25"/>
      <line id="Line_105" data-name="Line 105" y1="46.083" x2="66.93" transform="matrix(0.946, 0.326, -0.326, 0.946, 39.901, 160.569)" fill="none" stroke="#0581ff" stroke-width="1" opacity="0.25"/>
      <line id="Line_106" data-name="Line 106" x1="3.292" y1="36.208" transform="matrix(0.946, 0.326, -0.326, 0.946, 33.574, 168.834)" fill="none" stroke="#0581ff" stroke-width="1" opacity="0.25"/>
      <line id="Line_107" data-name="Line 107" x1="26.333" y1="29.625" transform="matrix(0.946, 0.326, -0.326, 0.946, 9.645, 167.557)" fill="none" stroke="#0581ff" stroke-width="1" opacity="0.25"/>
      <line id="Line_108" data-name="Line 108" x1="2.194" y2="63.638" transform="matrix(0.946, 0.326, -0.326, 0.946, 30.363, 107.386)" fill="none" stroke="#0581ff" stroke-width="1" opacity="0.25"/>
      <line id="Line_109" data-name="Line 109" y1="36.208" x2="20.847" transform="matrix(0.946, 0.326, -0.326, 0.946, 130.99, 212.821)" fill="none" stroke="#0581ff" stroke-width="1" opacity="0.25"/>
      <line id="Line_110" data-name="Line 110" x2="35.111" y2="54.86" transform="matrix(0.946, 0.326, -0.326, 0.946, 180.031, 60.284)" fill="none" stroke="#0581ff" stroke-width="1" opacity="0.25"/>
      <line id="Line_111" data-name="Line 111" x1="18.653" y1="71.318" transform="matrix(0.946, 0.326, -0.326, 0.946, 156.831, 90.59)" fill="none" stroke="#0581ff" stroke-width="1" opacity="0.25"/>
      <line id="Line_112" data-name="Line 112" x1="63.638" y1="38.402" transform="matrix(0.946, 0.326, -0.326, 0.946, 240.441, 56.716)" fill="none" stroke="#0581ff" stroke-width="1" opacity="0.25"/>
      <line id="Line_117" data-name="Line 117" x1="23.041" y2="9.875" transform="matrix(0.946, 0.326, -0.326, 0.946, 12.86, 158.22)" fill="none" stroke="#0581ff" stroke-width="1" opacity="0.25"/>
    </g>
    <g id="Group_1903" data-name="Group 1903" transform="translate(150.899 50.361) rotate(26)" opacity="0.3">
      <line id="Line_80-2" data-name="Line 80" x1="47.18" y1="18.653" transform="matrix(0.946, 0.326, -0.326, 0.946, 156.831, 90.59)" fill="none" stroke="#0581ff" stroke-width="1" opacity="0.25"/>
      <line id="Line_81-2" data-name="Line 81" x1="12.069" y2="36.208" transform="matrix(0.946, 0.326, -0.326, 0.946, 168.619, 56.355)" fill="none" stroke="#0581ff" stroke-width="1" opacity="0.25"/>
      <line id="Line_82-2" data-name="Line 82" x2="51.569" y2="2.194" transform="matrix(0.946, 0.326, -0.326, 0.946, 180.031, 60.284)" fill="none" stroke="#0581ff" stroke-width="1" opacity="0.25"/>
      <line id="Line_83-2" data-name="Line 83" y1="23.041" x2="55.957" transform="matrix(0.946, 0.326, -0.326, 0.946, 187.532, 38.498)" fill="none" stroke="#0581ff" stroke-width="1" opacity="0.25"/>
      <line id="Line_84-2" data-name="Line 84" x1="68.027" y2="14.264" transform="matrix(0.946, 0.326, -0.326, 0.946, 245.085, 43.23)" fill="none" stroke="#0581ff" stroke-width="1" opacity="0.25"/>
      <line id="Line_85-2" data-name="Line 85" x1="32.916" y1="10.972" transform="matrix(0.946, 0.326, -0.326, 0.946, 281.855, 44.287)" fill="none" stroke="#0581ff" stroke-width="1" opacity="0.25"/>
      <line id="Line_87-2" data-name="Line 87" y1="46.083" x2="28.527" transform="matrix(0.946, 0.326, -0.326, 0.946, 294.783, 0)" fill="none" stroke="#0581ff" stroke-width="1" opacity="0.25"/>
      <line id="Line_93-2" data-name="Line 93" y1="30.722" x2="25.236" transform="matrix(0.946, 0.326, -0.326, 0.946, 264.249, 105.529)" fill="none" stroke="#0581ff" stroke-width="1" opacity="0.25"/>
      <line id="Line_94-2" data-name="Line 94" x1="59.249" y2="8.778" transform="matrix(0.946, 0.326, -0.326, 0.946, 198.226, 115.287)" fill="none" stroke="#0581ff" stroke-width="1" opacity="0.25"/>
      <line id="Line_43-2" data-name="Line 43" x1="57.055" y1="19.75" transform="matrix(0.946, 0.326, -0.326, 0.946, 103.185, 182.359)" fill="none" stroke="#0581ff" stroke-width="1"/>
      <line id="Line_44-2" data-name="Line 44" x1="39.499" y2="32.916" transform="matrix(0.946, 0.326, -0.326, 0.946, 113.901, 151.236)" fill="none" stroke="#0581ff" stroke-width="1"/>
      <line id="Line_45-2" data-name="Line 45" x1="68.027" y1="25.236" transform="matrix(0.946, 0.326, -0.326, 0.946, 95.144, 118.087)" fill="none" stroke="#0581ff" stroke-width="1"/>
      <line id="Line_46-2" data-name="Line 46" y1="6.583" x2="70.221" transform="matrix(0.946, 0.326, -0.326, 0.946, 36.789, 159.497)" fill="none" stroke="#0581ff" stroke-width="1"/>
      <line id="Line_47-2" data-name="Line 47" x2="91.068" y2="48.277" transform="matrix(0.946, 0.326, -0.326, 0.946, 32.796, 107.063)" fill="none" stroke="#0581ff" stroke-width="1"/>
      <line id="Line_48-2" data-name="Line 48" x1="20.847" y1="54.86" transform="matrix(0.946, 0.326, -0.326, 0.946, 32.796, 107.063)" fill="none" stroke="#0581ff" stroke-width="1"/>
      <line id="Line_50-2" data-name="Line 50" x1="96.554" y2="27.43" transform="matrix(0.946, 0.326, -0.326, 0.946, 104.074, 92.152)" fill="none" stroke="#0581ff" stroke-width="1"/>
      <line id="Line_51-2" data-name="Line 51" x1="17.555" y1="52.666" transform="matrix(0.946, 0.326, -0.326, 0.946, 151.249, 164.096)" fill="none" stroke="#0581ff" stroke-width="1"/>
      <line id="Line_52-2" data-name="Line 52" x1="28.527" y2="52.666" transform="matrix(0.946, 0.326, -0.326, 0.946, 168.395, 114.299)" fill="none" stroke="#0581ff" stroke-width="1"/>
      <line id="Line_53-2" data-name="Line 53" y1="29.625" x2="30.722" transform="matrix(0.946, 0.326, -0.326, 0.946, 160.346, 191.597)" fill="none" stroke="#0581ff" stroke-width="1"/>
      <line id="Line_55-2" data-name="Line 55" y1="51.569" x2="16.458" transform="matrix(0.946, 0.326, -0.326, 0.946, 212.157, 74.828)" fill="none" stroke="#0581ff" stroke-width="1"/>
      <line id="Line_56-2" data-name="Line 56" x2="21.944" y2="73.513" transform="matrix(0.946, 0.326, -0.326, 0.946, 195.368, 123.587)" fill="none" stroke="#0581ff" stroke-width="1"/>
      <line id="Line_57-2" data-name="Line 57" x1="68.027" y1="10.972" transform="matrix(0.946, 0.326, -0.326, 0.946, 227.718, 80.186)" fill="none" stroke="#0581ff" stroke-width="1"/>
      <line id="Line_58-2" data-name="Line 58" x1="84.485" y2="40.597" transform="matrix(0.946, 0.326, -0.326, 0.946, 208.585, 85.202)" fill="none" stroke="#0581ff" stroke-width="1"/>
      <line id="Line_59-2" data-name="Line 59" x1="74.61" y2="40.597" transform="matrix(0.946, 0.326, -0.326, 0.946, 240.935, 41.801)" fill="none" stroke="#0581ff" stroke-width="1"/>
      <line id="Line_60-2" data-name="Line 60" y1="51.569" x2="4.389" transform="matrix(0.946, 0.326, -0.326, 0.946, 305.256, 63.948)" fill="none" stroke="#0581ff" stroke-width="1"/>
      <g id="Ellipse_134-2" data-name="Ellipse 134" transform="matrix(0.946, 0.326, -0.326, 0.946, 61.583, 213.871)" fill="#0581ff" stroke="#0581ff" stroke-width="1">
        <ellipse cx="3.292" cy="3.292" rx="3.292" ry="3.292" stroke="none"/>
        <ellipse cx="3.292" cy="3.292" rx="2.792" ry="2.792" fill="none"/>
      </g>
      <g id="Ellipse_135-2" data-name="Ellipse 135" transform="matrix(0.946, 0.326, -0.326, 0.946, 31.908, 161.878)" fill="#0581ff" stroke="#0581ff" stroke-width="1">
        <ellipse cx="3.292" cy="3.292" rx="3.292" ry="3.292" stroke="none"/>
        <ellipse cx="3.292" cy="3.292" rx="2.792" ry="2.792" fill="none"/>
      </g>
      <g id="Ellipse_136-2" data-name="Ellipse 136" transform="matrix(0.946, 0.326, -0.326, 0.946, 92.406, 114.244)" fill="#0581ff" stroke="#0581ff" stroke-width="1">
        <ellipse cx="3.292" cy="3.292" rx="3.292" ry="3.292" stroke="none"/>
        <ellipse cx="3.292" cy="3.292" rx="2.792" ry="2.792" fill="none"/>
      </g>
      <g id="Ellipse_144-2" data-name="Ellipse 144" transform="matrix(0.946, 0.326, -0.326, 0.946, 225.337, 75.305)" fill="#0581ff" stroke="#0581ff" stroke-width="1">
        <ellipse cx="3.292" cy="3.292" rx="3.292" ry="3.292" stroke="none"/>
        <ellipse cx="3.292" cy="3.292" rx="2.792" ry="2.792" fill="none"/>
      </g>
      <g id="Ellipse_160-2" data-name="Ellipse 160" transform="matrix(0.946, 0.326, -0.326, 0.946, 237.703, 52.873)" fill="#0581ff" stroke="#0581ff" stroke-width="1" opacity="0.5">
        <ellipse cx="3.292" cy="3.292" rx="3.292" ry="3.292" stroke="none"/>
        <ellipse cx="3.292" cy="3.292" rx="2.792" ry="2.792" fill="none"/>
      </g>
      <g id="Ellipse_156-2" data-name="Ellipse 156" transform="matrix(0.946, 0.326, -0.326, 0.946, 177.293, 56.441)" fill="#0581ff" stroke="#0581ff" stroke-width="1" opacity="0.5">
        <ellipse cx="3.292" cy="3.292" rx="3.292" ry="3.292" stroke="none"/>
        <ellipse cx="3.292" cy="3.292" rx="2.792" ry="2.792" fill="none"/>
      </g>
      <g id="Ellipse_140-2" data-name="Ellipse 140" transform="matrix(0.946, 0.326, -0.326, 0.946, 100.446, 178.515)" fill="#0581ff" stroke="#0581ff" stroke-width="1">
        <ellipse cx="3.292" cy="3.292" rx="3.292" ry="3.292" stroke="none"/>
        <ellipse cx="3.292" cy="3.292" rx="2.792" ry="2.792" fill="none"/>
      </g>
      <g id="Ellipse_141-2" data-name="Ellipse 141" transform="matrix(0.946, 0.326, -0.326, 0.946, 148.51, 160.252)" fill="#0581ff" stroke="#0581ff" stroke-width="1">
        <ellipse cx="3.292" cy="3.292" rx="3.292" ry="3.292" stroke="none"/>
        <ellipse cx="3.292" cy="3.292" rx="2.792" ry="2.792" fill="none"/>
      </g>
      <g id="Ellipse_137-2" data-name="Ellipse 137" transform="matrix(0.946, 0.326, -0.326, 0.946, 147.963, 215.764)" fill="#0581ff" stroke="#0581ff" stroke-width="1">
        <ellipse cx="3.292" cy="3.292" rx="3.292" ry="3.292" stroke="none"/>
        <ellipse cx="3.292" cy="3.292" rx="2.792" ry="2.792" fill="none"/>
      </g>
      <g id="Ellipse_143-2" data-name="Ellipse 143" transform="matrix(0.946, 0.326, -0.326, 0.946, 189.445, 196.395)" fill="#0581ff" stroke="#0581ff" stroke-width="1">
        <ellipse cx="3.292" cy="3.292" rx="3.292" ry="3.292" stroke="none"/>
        <ellipse cx="3.292" cy="3.292" rx="2.792" ry="2.792" fill="none"/>
      </g>
      <g id="Ellipse_138-2" data-name="Ellipse 138" transform="matrix(0.946, 0.326, -0.326, 0.946, 192.63, 119.743)" fill="#0581ff" stroke="#0581ff" stroke-width="1">
        <ellipse cx="3.292" cy="3.292" rx="3.292" ry="3.292" stroke="none"/>
        <ellipse cx="3.292" cy="3.292" rx="2.792" ry="2.792" fill="none"/>
      </g>
      <g id="Ellipse_157-2" data-name="Ellipse 157" transform="matrix(0.946, 0.326, -0.326, 0.946, 154.45, 85.709)" fill="#0581ff" stroke="#0581ff" stroke-width="1" opacity="0.5">
        <ellipse cx="3.292" cy="3.292" rx="3.292" ry="3.292" stroke="none"/>
        <ellipse cx="3.292" cy="3.292" rx="2.792" ry="2.792" fill="none"/>
      </g>
      <g id="Ellipse_167-2" data-name="Ellipse 167" transform="matrix(0.946, 0.326, -0.326, 0.946, 206.484, 227.792)" fill="#0581ff" stroke="#0581ff" stroke-width="1" opacity="0.5">
        <ellipse cx="3.292" cy="3.292" rx="3.292" ry="3.292" stroke="none"/>
        <ellipse cx="3.292" cy="3.292" rx="2.792" ry="2.792" fill="none"/>
      </g>
      <g id="Ellipse_168-2" data-name="Ellipse 168" transform="matrix(0.946, 0.326, -0.326, 0.946, 116.464, 243.212)" fill="#0581ff" stroke="#0581ff" stroke-width="1" opacity="0.5">
        <ellipse cx="3.292" cy="3.292" rx="3.292" ry="3.292" stroke="none"/>
        <ellipse cx="3.292" cy="3.292" rx="2.792" ry="2.792" fill="none"/>
      </g>
      <g id="Ellipse_169-2" data-name="Ellipse 169" transform="matrix(0.946, 0.326, -0.326, 0.946, 22.16, 200.297)" fill="#0581ff" stroke="#0581ff" stroke-width="1" opacity="0.5">
        <ellipse cx="3.292" cy="3.292" rx="3.292" ry="3.292" stroke="none"/>
        <ellipse cx="3.292" cy="3.292" rx="2.792" ry="2.792" fill="none"/>
      </g>
      <g id="Ellipse_170-2" data-name="Ellipse 170" transform="matrix(0.946, 0.326, -0.326, 0.946, 6.907, 163.713)" fill="#0581ff" stroke="#0581ff" stroke-width="1" opacity="0.5">
        <ellipse cx="3.292" cy="3.292" rx="3.292" ry="3.292" stroke="none"/>
        <ellipse cx="3.292" cy="3.292" rx="2.792" ry="2.792" fill="none"/>
      </g>
      <g id="Ellipse_145-2" data-name="Ellipse 145" transform="matrix(0.946, 0.326, -0.326, 0.946, 285.372, 109.901)" fill="#0581ff" stroke="#0581ff" stroke-width="1">
        <ellipse cx="3.292" cy="3.292" rx="3.292" ry="3.292" stroke="none"/>
        <ellipse cx="3.292" cy="3.292" rx="2.792" ry="2.792" fill="none"/>
      </g>
      <g id="Ellipse_158-2" data-name="Ellipse 158" transform="matrix(0.946, 0.326, -0.326, 0.946, 251.509, 130.733)" fill="#0581ff" stroke="#0581ff" stroke-width="1" opacity="0.5">
        <ellipse cx="3.292" cy="3.292" rx="3.292" ry="3.292" stroke="none"/>
        <ellipse cx="3.292" cy="3.292" rx="2.792" ry="2.792" fill="none"/>
      </g>
      <g id="Ellipse_142-2" data-name="Ellipse 142" transform="matrix(0.946, 0.326, -0.326, 0.946, 309.1, 61.21)" fill="#0581ff" stroke="#0581ff" stroke-width="1">
        <ellipse cx="3.292" cy="3.292" rx="3.292" ry="3.292" stroke="none"/>
        <ellipse cx="3.292" cy="3.292" rx="2.792" ry="2.792" fill="none"/>
      </g>
      <g id="Ellipse_159-2" data-name="Ellipse 159" transform="matrix(0.946, 0.326, -0.326, 0.946, 278.08, 40.085)" fill="#0581ff" stroke="#0581ff" stroke-width="1" opacity="0.5">
        <ellipse cx="3.292" cy="3.292" rx="3.292" ry="3.292" stroke="none"/>
        <ellipse cx="3.292" cy="3.292" rx="2.792" ry="2.792" fill="none"/>
      </g>
      <g id="Ellipse_161-2" data-name="Ellipse 161" transform="matrix(0.946, 0.326, -0.326, 0.946, 321.093, 6.158)" fill="#0581ff" stroke="#0581ff" stroke-width="1" opacity="0.5">
        <ellipse cx="3.292" cy="3.292" rx="3.292" ry="3.292" stroke="none"/>
        <ellipse cx="3.292" cy="3.292" rx="2.792" ry="2.792" fill="none"/>
      </g>
      <g id="Ellipse_139-2" data-name="Ellipse 139" transform="matrix(0.946, 0.326, -0.326, 0.946, 30.058, 103.219)" fill="#0581ff" stroke="#0581ff" stroke-width="1">
        <ellipse cx="3.292" cy="3.292" rx="3.292" ry="3.292" stroke="none"/>
        <ellipse cx="3.292" cy="3.292" rx="2.792" ry="2.792" fill="none"/>
      </g>
      <line id="Line_78-2" data-name="Line 78" x2="44.985" y2="39.499" transform="matrix(0.946, 0.326, -0.326, 0.946, 34.646, 165.722)" fill="none" stroke="#0581ff" stroke-width="1"/>
      <line id="Line_79-2" data-name="Line 79" y1="46.083" x2="25.236" transform="matrix(0.946, 0.326, -0.326, 0.946, 79.324, 174.143)" fill="none" stroke="#0581ff" stroke-width="1"/>
      <line id="Line_101-2" data-name="Line 101" x1="26.333" y1="24.139" transform="matrix(0.946, 0.326, -0.326, 0.946, 192.183, 200.239)" fill="none" stroke="#0581ff" stroke-width="1" opacity="0.25"/>
      <line id="Line_102-2" data-name="Line 102" x1="57.055" y2="7.68" transform="matrix(0.946, 0.326, -0.326, 0.946, 155.276, 213.06)" fill="none" stroke="#0581ff" stroke-width="1" opacity="0.25"/>
      <line id="Line_103-2" data-name="Line 103" y1="88.874" x2="3.292" transform="matrix(0.946, 0.326, -0.326, 0.946, 148.136, 163.024)" fill="none" stroke="#0581ff" stroke-width="1" opacity="0.25"/>
      <line id="Line_104-2" data-name="Line 104" x1="36.208" y1="55.957" transform="matrix(0.946, 0.326, -0.326, 0.946, 103.185, 182.359)" fill="none" stroke="#0581ff" stroke-width="1" opacity="0.25"/>
      <line id="Line_105-2" data-name="Line 105" y1="46.083" x2="66.93" transform="matrix(0.946, 0.326, -0.326, 0.946, 39.901, 160.569)" fill="none" stroke="#0581ff" stroke-width="1" opacity="0.25"/>
      <line id="Line_106-2" data-name="Line 106" x1="3.292" y1="36.208" transform="matrix(0.946, 0.326, -0.326, 0.946, 33.574, 168.834)" fill="none" stroke="#0581ff" stroke-width="1" opacity="0.25"/>
      <line id="Line_107-2" data-name="Line 107" x1="26.333" y1="29.625" transform="matrix(0.946, 0.326, -0.326, 0.946, 9.645, 167.557)" fill="none" stroke="#0581ff" stroke-width="1" opacity="0.25"/>
      <line id="Line_108-2" data-name="Line 108" x1="2.194" y2="63.638" transform="matrix(0.946, 0.326, -0.326, 0.946, 30.363, 107.386)" fill="none" stroke="#0581ff" stroke-width="1" opacity="0.25"/>
      <line id="Line_109-2" data-name="Line 109" y1="36.208" x2="20.847" transform="matrix(0.946, 0.326, -0.326, 0.946, 130.99, 212.821)" fill="none" stroke="#0581ff" stroke-width="1" opacity="0.25"/>
      <line id="Line_110-2" data-name="Line 110" x2="35.111" y2="54.86" transform="matrix(0.946, 0.326, -0.326, 0.946, 180.031, 60.284)" fill="none" stroke="#0581ff" stroke-width="1" opacity="0.25"/>
      <line id="Line_111-2" data-name="Line 111" x1="18.653" y1="71.318" transform="matrix(0.946, 0.326, -0.326, 0.946, 156.831, 90.59)" fill="none" stroke="#0581ff" stroke-width="1" opacity="0.25"/>
      <line id="Line_112-2" data-name="Line 112" x1="63.638" y1="38.402" transform="matrix(0.946, 0.326, -0.326, 0.946, 240.441, 56.716)" fill="none" stroke="#0581ff" stroke-width="1" opacity="0.25"/>
      <line id="Line_117-2" data-name="Line 117" x1="23.041" y2="9.875" transform="matrix(0.946, 0.326, -0.326, 0.946, 12.86, 158.22)" fill="none" stroke="#0581ff" stroke-width="1" opacity="0.25"/>
    </g>
  </g>
</svg>
