<?xml version="1.0" encoding="UTF-8" standalone="no"?>
<!DOCTYPE svg PUBLIC "-//W3C//DTD SVG 1.1//EN" "http://www.w3.org/Graphics/SVG/1.1/DTD/svg11.dtd">
<svg width="100%" height="100%" viewBox="0 0 493 385" version="1.1" xmlns="http://www.w3.org/2000/svg" xmlns:xlink="http://www.w3.org/1999/xlink" xml:space="preserve" xmlns:serif="http://www.serif.com/" style="fill-rule:evenodd;clip-rule:evenodd;">
    <g id="Group_1926" transform="matrix(1,0,0,1,50.815,28.618)">
        <g id="Group_1902" transform="matrix(-0.857167,-0.515038,0.515038,-0.857167,225.476,282.997)">
            <g opacity="0.3">
                <g id="Line_80" transform="matrix(0.946,0.326,-0.326,0.946,156.831,90.59)">
                    <path d="M47.18,18.653L0,0" style="fill:none;fill-rule:nonzero;stroke:rgb(5,129,255);stroke-opacity:0.25;stroke-width:1px;"/>
                </g>
                <g id="Line_81" transform="matrix(0.946,0.326,-0.326,0.946,168.619,56.355)">
                    <path d="M12.069,0L0,36.208" style="fill:none;fill-rule:nonzero;stroke:rgb(5,129,255);stroke-opacity:0.25;stroke-width:1px;"/>
                </g>
                <g id="Line_82" transform="matrix(0.946,0.326,-0.326,0.946,180.031,60.284)">
                    <path d="M0,0L51.569,2.194" style="fill:none;fill-rule:nonzero;stroke:rgb(5,129,255);stroke-opacity:0.25;stroke-width:1px;"/>
                </g>
                <g id="Line_83" transform="matrix(0.946,0.326,-0.326,0.946,187.532,38.498)">
                    <path d="M0,23.041L55.957,0" style="fill:none;fill-rule:nonzero;stroke:rgb(5,129,255);stroke-opacity:0.25;stroke-width:1px;"/>
                </g>
                <g id="Line_84" transform="matrix(0.946,0.326,-0.326,0.946,245.085,43.23)">
                    <path d="M68.027,0L0,14.264" style="fill:none;fill-rule:nonzero;stroke:rgb(5,129,255);stroke-opacity:0.25;stroke-width:1px;"/>
                </g>
                <g id="Line_85" transform="matrix(0.946,0.326,-0.326,0.946,281.855,44.287)">
                    <path d="M32.916,10.972L0,0" style="fill:none;fill-rule:nonzero;stroke:rgb(5,129,255);stroke-opacity:0.25;stroke-width:1px;"/>
                </g>
                <g id="Line_87" transform="matrix(0.946,0.326,-0.326,0.946,294.783,0)">
                    <path d="M0,46.083L28.527,0" style="fill:none;fill-rule:nonzero;stroke:rgb(5,129,255);stroke-opacity:0.25;stroke-width:1px;"/>
                </g>
                <g id="Line_93" transform="matrix(0.946,0.326,-0.326,0.946,264.249,105.529)">
                    <path d="M0,30.722L25.236,0" style="fill:none;fill-rule:nonzero;stroke:rgb(5,129,255);stroke-opacity:0.25;stroke-width:1px;"/>
                </g>
                <g id="Line_94" transform="matrix(0.946,0.326,-0.326,0.946,198.226,115.287)">
                    <path d="M59.249,0L0,8.778" style="fill:none;fill-rule:nonzero;stroke:rgb(5,129,255);stroke-opacity:0.25;stroke-width:1px;"/>
                </g>
                <g id="Line_43" transform="matrix(0.946,0.326,-0.326,0.946,103.185,182.359)">
                    <path d="M57.055,19.75L0,0" style="fill:none;fill-rule:nonzero;stroke:rgb(5,129,255);stroke-width:1px;"/>
                </g>
                <g id="Line_44" transform="matrix(0.946,0.326,-0.326,0.946,113.901,151.236)">
                    <path d="M39.499,0L0,32.916" style="fill:none;fill-rule:nonzero;stroke:rgb(5,129,255);stroke-width:1px;"/>
                </g>
                <g id="Line_45" transform="matrix(0.946,0.326,-0.326,0.946,95.144,118.087)">
                    <path d="M68.027,25.236L0,0" style="fill:none;fill-rule:nonzero;stroke:rgb(5,129,255);stroke-width:1px;"/>
                </g>
                <g id="Line_46" transform="matrix(0.946,0.326,-0.326,0.946,36.789,159.497)">
                    <path d="M0,6.583L70.221,0" style="fill:none;fill-rule:nonzero;stroke:rgb(5,129,255);stroke-width:1px;"/>
                </g>
                <g id="Line_47" transform="matrix(0.946,0.326,-0.326,0.946,32.796,107.063)">
                    <path d="M0,0L91.068,48.277" style="fill:none;fill-rule:nonzero;stroke:rgb(5,129,255);stroke-width:1px;"/>
                </g>
                <g id="Line_48" transform="matrix(0.946,0.326,-0.326,0.946,32.796,107.063)">
                    <path d="M20.847,54.86L0,0" style="fill:none;fill-rule:nonzero;stroke:rgb(5,129,255);stroke-width:1px;"/>
                </g>
                <g id="Line_50" transform="matrix(0.946,0.326,-0.326,0.946,104.074,92.152)">
                    <path d="M96.554,0L0,27.43" style="fill:none;fill-rule:nonzero;stroke:rgb(5,129,255);stroke-width:1px;"/>
                </g>
                <g id="Line_51" transform="matrix(0.946,0.326,-0.326,0.946,151.249,164.096)">
                    <path d="M17.555,52.666L0,0" style="fill:none;fill-rule:nonzero;stroke:rgb(5,129,255);stroke-width:1px;"/>
                </g>
                <g id="Line_52" transform="matrix(0.946,0.326,-0.326,0.946,168.395,114.299)">
                    <path d="M28.527,0L0,52.666" style="fill:none;fill-rule:nonzero;stroke:rgb(5,129,255);stroke-width:1px;"/>
                </g>
                <g id="Line_53" transform="matrix(0.946,0.326,-0.326,0.946,160.346,191.597)">
                    <path d="M0,29.625L30.722,0" style="fill:none;fill-rule:nonzero;stroke:rgb(5,129,255);stroke-width:1px;"/>
                </g>
                <g id="Line_55" transform="matrix(0.946,0.326,-0.326,0.946,212.157,74.828)">
                    <path d="M0,51.569L16.458,0" style="fill:none;fill-rule:nonzero;stroke:rgb(5,129,255);stroke-width:1px;"/>
                </g>
                <g id="Line_56" transform="matrix(0.946,0.326,-0.326,0.946,195.368,123.587)">
                    <path d="M0,0L21.944,73.513" style="fill:none;fill-rule:nonzero;stroke:rgb(5,129,255);stroke-width:1px;"/>
                </g>
                <g id="Line_57" transform="matrix(0.946,0.326,-0.326,0.946,227.718,80.186)">
                    <path d="M68.027,10.972L0,0" style="fill:none;fill-rule:nonzero;stroke:rgb(5,129,255);stroke-width:1px;"/>
                </g>
                <g id="Line_58" transform="matrix(0.946,0.326,-0.326,0.946,208.585,85.202)">
                    <path d="M84.485,0L0,40.597" style="fill:none;fill-rule:nonzero;stroke:rgb(5,129,255);stroke-width:1px;"/>
                </g>
                <g id="Line_59" transform="matrix(0.946,0.326,-0.326,0.946,240.935,41.801)">
                    <path d="M74.61,0L0,40.597" style="fill:none;fill-rule:nonzero;stroke:rgb(5,129,255);stroke-width:1px;"/>
                </g>
                <g id="Line_60" transform="matrix(0.946,0.326,-0.326,0.946,305.256,63.948)">
                    <path d="M0,51.569L4.389,0" style="fill:none;fill-rule:nonzero;stroke:rgb(5,129,255);stroke-width:1px;"/>
                </g>
                <g id="Ellipse_134" transform="matrix(0.946,0.326,-0.326,0.946,61.583,213.871)">
                    <circle cx="3.292" cy="3.292" r="3.292" style="fill:rgb(5,129,255);"/>
                    <circle cx="3.292" cy="3.292" r="2.792" style="fill:none;stroke:rgb(5,129,255);stroke-width:1px;"/>
                </g>
                <g id="Ellipse_135" transform="matrix(0.946,0.326,-0.326,0.946,31.908,161.878)">
                    <circle cx="3.292" cy="3.292" r="3.292" style="fill:rgb(5,129,255);"/>
                    <circle cx="3.292" cy="3.292" r="2.792" style="fill:none;stroke:rgb(5,129,255);stroke-width:1px;"/>
                </g>
                <g id="Ellipse_136" transform="matrix(0.946,0.326,-0.326,0.946,92.406,114.244)">
                    <circle cx="3.292" cy="3.292" r="3.292" style="fill:rgb(5,129,255);"/>
                    <circle cx="3.292" cy="3.292" r="2.792" style="fill:none;stroke:rgb(5,129,255);stroke-width:1px;"/>
                </g>
                <g id="Ellipse_144" transform="matrix(0.946,0.326,-0.326,0.946,225.338,75.305)">
                    <circle cx="3.292" cy="3.292" r="3.292" style="fill:rgb(5,129,255);"/>
                    <circle cx="3.292" cy="3.292" r="2.792" style="fill:none;stroke:rgb(5,129,255);stroke-width:1px;"/>
                </g>
                <g id="Ellipse_160" transform="matrix(0.946,0.326,-0.326,0.946,237.703,52.873)">
                    <g opacity="0.5">
                        <circle cx="3.292" cy="3.292" r="3.292" style="fill:rgb(5,129,255);"/>
                        <circle cx="3.292" cy="3.292" r="2.792" style="fill:none;stroke:rgb(5,129,255);stroke-width:1px;"/>
                    </g>
                </g>
                <g id="Ellipse_156" transform="matrix(0.946,0.326,-0.326,0.946,177.293,56.441)">
                    <g opacity="0.5">
                        <circle cx="3.292" cy="3.292" r="3.292" style="fill:rgb(5,129,255);"/>
                        <circle cx="3.292" cy="3.292" r="2.792" style="fill:none;stroke:rgb(5,129,255);stroke-width:1px;"/>
                    </g>
                </g>
                <g id="Ellipse_140" transform="matrix(0.946,0.326,-0.326,0.946,100.446,178.515)">
                    <circle cx="3.292" cy="3.292" r="3.292" style="fill:rgb(5,129,255);"/>
                    <circle cx="3.292" cy="3.292" r="2.792" style="fill:none;stroke:rgb(5,129,255);stroke-width:1px;"/>
                </g>
                <g id="Ellipse_141" transform="matrix(0.946,0.326,-0.326,0.946,148.51,160.252)">
                    <circle cx="3.292" cy="3.292" r="3.292" style="fill:rgb(5,129,255);"/>
                    <circle cx="3.292" cy="3.292" r="2.792" style="fill:none;stroke:rgb(5,129,255);stroke-width:1px;"/>
                </g>
                <g id="Ellipse_137" transform="matrix(0.946,0.326,-0.326,0.946,147.963,215.764)">
                    <circle cx="3.292" cy="3.292" r="3.292" style="fill:rgb(5,129,255);"/>
                    <circle cx="3.292" cy="3.292" r="2.792" style="fill:none;stroke:rgb(5,129,255);stroke-width:1px;"/>
                </g>
                <g id="Ellipse_143" transform="matrix(0.946,0.326,-0.326,0.946,189.445,196.395)">
                    <circle cx="3.292" cy="3.292" r="3.292" style="fill:rgb(5,129,255);"/>
                    <circle cx="3.292" cy="3.292" r="2.792" style="fill:none;stroke:rgb(5,129,255);stroke-width:1px;"/>
                </g>
                <g id="Ellipse_138" transform="matrix(0.946,0.326,-0.326,0.946,192.63,119.743)">
                    <circle cx="3.292" cy="3.292" r="3.292" style="fill:rgb(5,129,255);"/>
                    <circle cx="3.292" cy="3.292" r="2.792" style="fill:none;stroke:rgb(5,129,255);stroke-width:1px;"/>
                </g>
                <g id="Ellipse_157" transform="matrix(0.946,0.326,-0.326,0.946,154.45,85.709)">
                    <g opacity="0.5">
                        <circle cx="3.292" cy="3.292" r="3.292" style="fill:rgb(5,129,255);"/>
                        <circle cx="3.292" cy="3.292" r="2.792" style="fill:none;stroke:rgb(5,129,255);stroke-width:1px;"/>
                    </g>
                </g>
                <g id="Ellipse_167" transform="matrix(0.946,0.326,-0.326,0.946,206.485,227.792)">
                    <g opacity="0.5">
                        <circle cx="3.292" cy="3.292" r="3.292" style="fill:rgb(5,129,255);"/>
                        <circle cx="3.292" cy="3.292" r="2.792" style="fill:none;stroke:rgb(5,129,255);stroke-width:1px;"/>
                    </g>
                </g>
                <g id="Ellipse_168" transform="matrix(0.946,0.326,-0.326,0.946,116.464,243.212)">
                    <g opacity="0.5">
                        <circle cx="3.292" cy="3.292" r="3.292" style="fill:rgb(5,129,255);"/>
                        <circle cx="3.292" cy="3.292" r="2.792" style="fill:none;stroke:rgb(5,129,255);stroke-width:1px;"/>
                    </g>
                </g>
                <g id="Ellipse_169" transform="matrix(0.946,0.326,-0.326,0.946,22.16,200.297)">
                    <g opacity="0.5">
                        <circle cx="3.292" cy="3.292" r="3.292" style="fill:rgb(5,129,255);"/>
                        <circle cx="3.292" cy="3.292" r="2.792" style="fill:none;stroke:rgb(5,129,255);stroke-width:1px;"/>
                    </g>
                </g>
                <g id="Ellipse_170" transform="matrix(0.946,0.326,-0.326,0.946,6.907,163.713)">
                    <g opacity="0.5">
                        <circle cx="3.292" cy="3.292" r="3.292" style="fill:rgb(5,129,255);"/>
                        <circle cx="3.292" cy="3.292" r="2.792" style="fill:none;stroke:rgb(5,129,255);stroke-width:1px;"/>
                    </g>
                </g>
                <g id="Ellipse_145" transform="matrix(0.946,0.326,-0.326,0.946,285.372,109.901)">
                    <circle cx="3.292" cy="3.292" r="3.292" style="fill:rgb(5,129,255);"/>
                    <circle cx="3.292" cy="3.292" r="2.792" style="fill:none;stroke:rgb(5,129,255);stroke-width:1px;"/>
                </g>
                <g id="Ellipse_158" transform="matrix(0.946,0.326,-0.326,0.946,251.509,130.733)">
                    <g opacity="0.5">
                        <circle cx="3.292" cy="3.292" r="3.292" style="fill:rgb(5,129,255);"/>
                        <circle cx="3.292" cy="3.292" r="2.792" style="fill:none;stroke:rgb(5,129,255);stroke-width:1px;"/>
                    </g>
                </g>
                <g id="Ellipse_142" transform="matrix(0.946,0.326,-0.326,0.946,309.1,61.21)">
                    <circle cx="3.292" cy="3.292" r="3.292" style="fill:rgb(5,129,255);"/>
                    <circle cx="3.292" cy="3.292" r="2.792" style="fill:none;stroke:rgb(5,129,255);stroke-width:1px;"/>
                </g>
                <g id="Ellipse_159" transform="matrix(0.946,0.326,-0.326,0.946,278.08,40.085)">
                    <g opacity="0.5">
                        <circle cx="3.292" cy="3.292" r="3.292" style="fill:rgb(5,129,255);"/>
                        <circle cx="3.292" cy="3.292" r="2.792" style="fill:none;stroke:rgb(5,129,255);stroke-width:1px;"/>
                    </g>
                </g>
                <g id="Ellipse_161" transform="matrix(0.946,0.326,-0.326,0.946,321.093,6.158)">
                    <g opacity="0.5">
                        <circle cx="3.292" cy="3.292" r="3.292" style="fill:rgb(5,129,255);"/>
                        <circle cx="3.292" cy="3.292" r="2.792" style="fill:none;stroke:rgb(5,129,255);stroke-width:1px;"/>
                    </g>
                </g>
                <g id="Ellipse_139" transform="matrix(0.946,0.326,-0.326,0.946,30.058,103.219)">
                    <circle cx="3.292" cy="3.292" r="3.292" style="fill:rgb(5,129,255);"/>
                    <circle cx="3.292" cy="3.292" r="2.792" style="fill:none;stroke:rgb(5,129,255);stroke-width:1px;"/>
                </g>
                <g id="Line_78" transform="matrix(0.946,0.326,-0.326,0.946,34.646,165.721)">
                    <path d="M0,0L44.985,39.499" style="fill:none;fill-rule:nonzero;stroke:rgb(5,129,255);stroke-width:1px;"/>
                </g>
                <g id="Line_79" transform="matrix(0.946,0.326,-0.326,0.946,79.324,174.143)">
                    <path d="M0,46.083L25.236,0" style="fill:none;fill-rule:nonzero;stroke:rgb(5,129,255);stroke-width:1px;"/>
                </g>
                <g id="Line_101" transform="matrix(0.946,0.326,-0.326,0.946,192.183,200.239)">
                    <path d="M26.333,24.139L0,0" style="fill:none;fill-rule:nonzero;stroke:rgb(5,129,255);stroke-opacity:0.25;stroke-width:1px;"/>
                </g>
                <g id="Line_102" transform="matrix(0.946,0.326,-0.326,0.946,155.276,213.06)">
                    <path d="M57.055,0L0,7.68" style="fill:none;fill-rule:nonzero;stroke:rgb(5,129,255);stroke-opacity:0.25;stroke-width:1px;"/>
                </g>
                <g id="Line_103" transform="matrix(0.946,0.326,-0.326,0.946,148.136,163.024)">
                    <path d="M0,88.874L3.292,0" style="fill:none;fill-rule:nonzero;stroke:rgb(5,129,255);stroke-opacity:0.25;stroke-width:1px;"/>
                </g>
                <g id="Line_104" transform="matrix(0.946,0.326,-0.326,0.946,103.185,182.359)">
                    <path d="M36.208,55.957L0,0" style="fill:none;fill-rule:nonzero;stroke:rgb(5,129,255);stroke-opacity:0.25;stroke-width:1px;"/>
                </g>
                <g id="Line_105" transform="matrix(0.946,0.326,-0.326,0.946,39.901,160.569)">
                    <path d="M0,46.083L66.93,0" style="fill:none;fill-rule:nonzero;stroke:rgb(5,129,255);stroke-opacity:0.25;stroke-width:1px;"/>
                </g>
                <g id="Line_106" transform="matrix(0.946,0.326,-0.326,0.946,33.574,168.834)">
                    <path d="M3.292,36.208L0,0" style="fill:none;fill-rule:nonzero;stroke:rgb(5,129,255);stroke-opacity:0.25;stroke-width:1px;"/>
                </g>
                <g id="Line_107" transform="matrix(0.946,0.326,-0.326,0.946,9.645,167.557)">
                    <path d="M26.333,29.625L0,0" style="fill:none;fill-rule:nonzero;stroke:rgb(5,129,255);stroke-opacity:0.25;stroke-width:1px;"/>
                </g>
                <g id="Line_108" transform="matrix(0.946,0.326,-0.326,0.946,30.363,107.386)">
                    <path d="M2.194,0L0,63.638" style="fill:none;fill-rule:nonzero;stroke:rgb(5,129,255);stroke-opacity:0.25;stroke-width:1px;"/>
                </g>
                <g id="Line_109" transform="matrix(0.946,0.326,-0.326,0.946,130.99,212.821)">
                    <path d="M0,36.208L20.847,0" style="fill:none;fill-rule:nonzero;stroke:rgb(5,129,255);stroke-opacity:0.25;stroke-width:1px;"/>
                </g>
                <g id="Line_110" transform="matrix(0.946,0.326,-0.326,0.946,180.031,60.284)">
                    <path d="M0,0L35.111,54.86" style="fill:none;fill-rule:nonzero;stroke:rgb(5,129,255);stroke-opacity:0.25;stroke-width:1px;"/>
                </g>
                <g id="Line_111" transform="matrix(0.946,0.326,-0.326,0.946,156.831,90.59)">
                    <path d="M18.653,71.318L0,0" style="fill:none;fill-rule:nonzero;stroke:rgb(5,129,255);stroke-opacity:0.25;stroke-width:1px;"/>
                </g>
                <g id="Line_112" transform="matrix(0.946,0.326,-0.326,0.946,240.441,56.716)">
                    <path d="M63.638,38.402L0,0" style="fill:none;fill-rule:nonzero;stroke:rgb(5,129,255);stroke-opacity:0.25;stroke-width:1px;"/>
                </g>
                <g id="Line_117" transform="matrix(0.946,0.326,-0.326,0.946,12.86,158.22)">
                    <path d="M23.041,0L0,9.875" style="fill:none;fill-rule:nonzero;stroke:rgb(5,129,255);stroke-opacity:0.25;stroke-width:1px;"/>
                </g>
            </g>
        </g>
        <g id="Group_1903" transform="matrix(0.898794,0.438371,-0.438371,0.898794,150.899,50.361)">
            <g opacity="0.3">
                <g id="Line_80-2" transform="matrix(0.946,0.326,-0.326,0.946,156.831,90.59)">
                    <path d="M47.18,18.653L0,0" style="fill:none;fill-rule:nonzero;stroke:rgb(5,129,255);stroke-opacity:0.25;stroke-width:1px;"/>
                </g>
                <g id="Line_81-2" transform="matrix(0.946,0.326,-0.326,0.946,168.619,56.355)">
                    <path d="M12.069,0L0,36.208" style="fill:none;fill-rule:nonzero;stroke:rgb(5,129,255);stroke-opacity:0.25;stroke-width:1px;"/>
                </g>
                <g id="Line_82-2" transform="matrix(0.946,0.326,-0.326,0.946,180.031,60.284)">
                    <path d="M0,0L51.569,2.194" style="fill:none;fill-rule:nonzero;stroke:rgb(5,129,255);stroke-opacity:0.25;stroke-width:1px;"/>
                </g>
                <g id="Line_83-2" transform="matrix(0.946,0.326,-0.326,0.946,187.532,38.498)">
                    <path d="M0,23.041L55.957,0" style="fill:none;fill-rule:nonzero;stroke:rgb(5,129,255);stroke-opacity:0.25;stroke-width:1px;"/>
                </g>
                <g id="Line_84-2" transform="matrix(0.946,0.326,-0.326,0.946,245.085,43.23)">
                    <path d="M68.027,0L0,14.264" style="fill:none;fill-rule:nonzero;stroke:rgb(5,129,255);stroke-opacity:0.25;stroke-width:1px;"/>
                </g>
                <g id="Line_85-2" transform="matrix(0.946,0.326,-0.326,0.946,281.855,44.287)">
                    <path d="M32.916,10.972L0,0" style="fill:none;fill-rule:nonzero;stroke:rgb(5,129,255);stroke-opacity:0.25;stroke-width:1px;"/>
                </g>
                <g id="Line_87-2" transform="matrix(0.946,0.326,-0.326,0.946,294.783,0)">
                    <path d="M0,46.083L28.527,0" style="fill:none;fill-rule:nonzero;stroke:rgb(5,129,255);stroke-opacity:0.25;stroke-width:1px;"/>
                </g>
                <g id="Line_93-2" transform="matrix(0.946,0.326,-0.326,0.946,264.249,105.529)">
                    <path d="M0,30.722L25.236,0" style="fill:none;fill-rule:nonzero;stroke:rgb(5,129,255);stroke-opacity:0.25;stroke-width:1px;"/>
                </g>
                <g id="Line_94-2" transform="matrix(0.946,0.326,-0.326,0.946,198.226,115.287)">
                    <path d="M59.249,0L0,8.778" style="fill:none;fill-rule:nonzero;stroke:rgb(5,129,255);stroke-opacity:0.25;stroke-width:1px;"/>
                </g>
                <g id="Line_43-2" transform="matrix(0.946,0.326,-0.326,0.946,103.185,182.359)">
                    <path d="M57.055,19.75L0,0" style="fill:none;fill-rule:nonzero;stroke:rgb(5,129,255);stroke-width:1px;"/>
                </g>
                <g id="Line_44-2" transform="matrix(0.946,0.326,-0.326,0.946,113.901,151.236)">
                    <path d="M39.499,0L0,32.916" style="fill:none;fill-rule:nonzero;stroke:rgb(5,129,255);stroke-width:1px;"/>
                </g>
                <g id="Line_45-2" transform="matrix(0.946,0.326,-0.326,0.946,95.144,118.087)">
                    <path d="M68.027,25.236L0,0" style="fill:none;fill-rule:nonzero;stroke:rgb(5,129,255);stroke-width:1px;"/>
                </g>
                <g id="Line_46-2" transform="matrix(0.946,0.326,-0.326,0.946,36.789,159.497)">
                    <path d="M0,6.583L70.221,0" style="fill:none;fill-rule:nonzero;stroke:rgb(5,129,255);stroke-width:1px;"/>
                </g>
                <g id="Line_47-2" transform="matrix(0.946,0.326,-0.326,0.946,32.796,107.063)">
                    <path d="M0,0L91.068,48.277" style="fill:none;fill-rule:nonzero;stroke:rgb(5,129,255);stroke-width:1px;"/>
                </g>
                <g id="Line_48-2" transform="matrix(0.946,0.326,-0.326,0.946,32.796,107.063)">
                    <path d="M20.847,54.86L0,0" style="fill:none;fill-rule:nonzero;stroke:rgb(5,129,255);stroke-width:1px;"/>
                </g>
                <g id="Line_50-2" transform="matrix(0.946,0.326,-0.326,0.946,104.074,92.152)">
                    <path d="M96.554,0L0,27.43" style="fill:none;fill-rule:nonzero;stroke:rgb(5,129,255);stroke-width:1px;"/>
                </g>
                <g id="Line_51-2" transform="matrix(0.946,0.326,-0.326,0.946,151.249,164.096)">
                    <path d="M17.555,52.666L0,0" style="fill:none;fill-rule:nonzero;stroke:rgb(5,129,255);stroke-width:1px;"/>
                </g>
                <g id="Line_52-2" transform="matrix(0.946,0.326,-0.326,0.946,168.395,114.299)">
                    <path d="M28.527,0L0,52.666" style="fill:none;fill-rule:nonzero;stroke:rgb(5,129,255);stroke-width:1px;"/>
                </g>
                <g id="Line_53-2" transform="matrix(0.946,0.326,-0.326,0.946,160.346,191.597)">
                    <path d="M0,29.625L30.722,0" style="fill:none;fill-rule:nonzero;stroke:rgb(5,129,255);stroke-width:1px;"/>
                </g>
                <g id="Line_55-2" transform="matrix(0.946,0.326,-0.326,0.946,212.157,74.828)">
                    <path d="M0,51.569L16.458,0" style="fill:none;fill-rule:nonzero;stroke:rgb(5,129,255);stroke-width:1px;"/>
                </g>
                <g id="Line_56-2" transform="matrix(0.946,0.326,-0.326,0.946,195.368,123.587)">
                    <path d="M0,0L21.944,73.513" style="fill:none;fill-rule:nonzero;stroke:rgb(5,129,255);stroke-width:1px;"/>
                </g>
                <g id="Line_57-2" transform="matrix(0.946,0.326,-0.326,0.946,227.718,80.186)">
                    <path d="M68.027,10.972L0,0" style="fill:none;fill-rule:nonzero;stroke:rgb(5,129,255);stroke-width:1px;"/>
                </g>
                <g id="Line_58-2" transform="matrix(0.946,0.326,-0.326,0.946,208.585,85.202)">
                    <path d="M84.485,0L0,40.597" style="fill:none;fill-rule:nonzero;stroke:rgb(5,129,255);stroke-width:1px;"/>
                </g>
                <g id="Line_59-2" transform="matrix(0.946,0.326,-0.326,0.946,240.935,41.801)">
                    <path d="M74.61,0L0,40.597" style="fill:none;fill-rule:nonzero;stroke:rgb(5,129,255);stroke-width:1px;"/>
                </g>
                <g id="Line_60-2" transform="matrix(0.946,0.326,-0.326,0.946,305.256,63.948)">
                    <path d="M0,51.569L4.389,0" style="fill:none;fill-rule:nonzero;stroke:rgb(5,129,255);stroke-width:1px;"/>
                </g>
                <g id="Ellipse_134-2" transform="matrix(0.946,0.326,-0.326,0.946,61.583,213.871)">
                    <circle cx="3.292" cy="3.292" r="3.292" style="fill:rgb(5,129,255);"/>
                    <circle cx="3.292" cy="3.292" r="2.792" style="fill:none;stroke:rgb(5,129,255);stroke-width:1px;"/>
                </g>
                <g id="Ellipse_135-2" transform="matrix(0.946,0.326,-0.326,0.946,31.908,161.878)">
                    <circle cx="3.292" cy="3.292" r="3.292" style="fill:rgb(5,129,255);"/>
                    <circle cx="3.292" cy="3.292" r="2.792" style="fill:none;stroke:rgb(5,129,255);stroke-width:1px;"/>
                </g>
                <g id="Ellipse_136-2" transform="matrix(0.946,0.326,-0.326,0.946,92.406,114.244)">
                    <circle cx="3.292" cy="3.292" r="3.292" style="fill:rgb(5,129,255);"/>
                    <circle cx="3.292" cy="3.292" r="2.792" style="fill:none;stroke:rgb(5,129,255);stroke-width:1px;"/>
                </g>
                <g id="Ellipse_144-2" transform="matrix(0.946,0.326,-0.326,0.946,225.337,75.305)">
                    <circle cx="3.292" cy="3.292" r="3.292" style="fill:rgb(5,129,255);"/>
                    <circle cx="3.292" cy="3.292" r="2.792" style="fill:none;stroke:rgb(5,129,255);stroke-width:1px;"/>
                </g>
                <g id="Ellipse_160-2" transform="matrix(0.946,0.326,-0.326,0.946,237.703,52.873)">
                    <g opacity="0.5">
                        <circle cx="3.292" cy="3.292" r="3.292" style="fill:rgb(5,129,255);"/>
                        <circle cx="3.292" cy="3.292" r="2.792" style="fill:none;stroke:rgb(5,129,255);stroke-width:1px;"/>
                    </g>
                </g>
                <g id="Ellipse_156-2" transform="matrix(0.946,0.326,-0.326,0.946,177.293,56.441)">
                    <g opacity="0.5">
                        <circle cx="3.292" cy="3.292" r="3.292" style="fill:rgb(5,129,255);"/>
                        <circle cx="3.292" cy="3.292" r="2.792" style="fill:none;stroke:rgb(5,129,255);stroke-width:1px;"/>
                    </g>
                </g>
                <g id="Ellipse_140-2" transform="matrix(0.946,0.326,-0.326,0.946,100.446,178.515)">
                    <circle cx="3.292" cy="3.292" r="3.292" style="fill:rgb(5,129,255);"/>
                    <circle cx="3.292" cy="3.292" r="2.792" style="fill:none;stroke:rgb(5,129,255);stroke-width:1px;"/>
                </g>
                <g id="Ellipse_141-2" transform="matrix(0.946,0.326,-0.326,0.946,148.51,160.252)">
                    <circle cx="3.292" cy="3.292" r="3.292" style="fill:rgb(5,129,255);"/>
                    <circle cx="3.292" cy="3.292" r="2.792" style="fill:none;stroke:rgb(5,129,255);stroke-width:1px;"/>
                </g>
                <g id="Ellipse_137-2" transform="matrix(0.946,0.326,-0.326,0.946,147.963,215.764)">
                    <circle cx="3.292" cy="3.292" r="3.292" style="fill:rgb(5,129,255);"/>
                    <circle cx="3.292" cy="3.292" r="2.792" style="fill:none;stroke:rgb(5,129,255);stroke-width:1px;"/>
                </g>
                <g id="Ellipse_143-2" transform="matrix(0.946,0.326,-0.326,0.946,189.445,196.395)">
                    <circle cx="3.292" cy="3.292" r="3.292" style="fill:rgb(5,129,255);"/>
                    <circle cx="3.292" cy="3.292" r="2.792" style="fill:none;stroke:rgb(5,129,255);stroke-width:1px;"/>
                </g>
                <g id="Ellipse_138-2" transform="matrix(0.946,0.326,-0.326,0.946,192.63,119.743)">
                    <circle cx="3.292" cy="3.292" r="3.292" style="fill:rgb(5,129,255);"/>
                    <circle cx="3.292" cy="3.292" r="2.792" style="fill:none;stroke:rgb(5,129,255);stroke-width:1px;"/>
                </g>
                <g id="Ellipse_157-2" transform="matrix(0.946,0.326,-0.326,0.946,154.45,85.709)">
                    <g opacity="0.5">
                        <circle cx="3.292" cy="3.292" r="3.292" style="fill:rgb(5,129,255);"/>
                        <circle cx="3.292" cy="3.292" r="2.792" style="fill:none;stroke:rgb(5,129,255);stroke-width:1px;"/>
                    </g>
                </g>
                <g id="Ellipse_167-2" transform="matrix(0.946,0.326,-0.326,0.946,206.484,227.792)">
                    <g opacity="0.5">
                        <circle cx="3.292" cy="3.292" r="3.292" style="fill:rgb(5,129,255);"/>
                        <circle cx="3.292" cy="3.292" r="2.792" style="fill:none;stroke:rgb(5,129,255);stroke-width:1px;"/>
                    </g>
                </g>
                <g id="Ellipse_168-2" transform="matrix(0.946,0.326,-0.326,0.946,116.464,243.212)">
                    <g opacity="0.5">
                        <circle cx="3.292" cy="3.292" r="3.292" style="fill:rgb(5,129,255);"/>
                        <circle cx="3.292" cy="3.292" r="2.792" style="fill:none;stroke:rgb(5,129,255);stroke-width:1px;"/>
                    </g>
                </g>
                <g id="Ellipse_169-2" transform="matrix(0.946,0.326,-0.326,0.946,22.16,200.297)">
                    <g opacity="0.5">
                        <circle cx="3.292" cy="3.292" r="3.292" style="fill:rgb(5,129,255);"/>
                        <circle cx="3.292" cy="3.292" r="2.792" style="fill:none;stroke:rgb(5,129,255);stroke-width:1px;"/>
                    </g>
                </g>
                <g id="Ellipse_170-2" transform="matrix(0.946,0.326,-0.326,0.946,6.907,163.713)">
                    <g opacity="0.5">
                        <circle cx="3.292" cy="3.292" r="3.292" style="fill:rgb(5,129,255);"/>
                        <circle cx="3.292" cy="3.292" r="2.792" style="fill:none;stroke:rgb(5,129,255);stroke-width:1px;"/>
                    </g>
                </g>
                <g id="Ellipse_145-2" transform="matrix(0.946,0.326,-0.326,0.946,285.372,109.901)">
                    <circle cx="3.292" cy="3.292" r="3.292" style="fill:rgb(5,129,255);"/>
                    <circle cx="3.292" cy="3.292" r="2.792" style="fill:none;stroke:rgb(5,129,255);stroke-width:1px;"/>
                </g>
                <g id="Ellipse_158-2" transform="matrix(0.946,0.326,-0.326,0.946,251.509,130.733)">
                    <g opacity="0.5">
                        <circle cx="3.292" cy="3.292" r="3.292" style="fill:rgb(5,129,255);"/>
                        <circle cx="3.292" cy="3.292" r="2.792" style="fill:none;stroke:rgb(5,129,255);stroke-width:1px;"/>
                    </g>
                </g>
                <g id="Ellipse_142-2" transform="matrix(0.946,0.326,-0.326,0.946,309.1,61.21)">
                    <circle cx="3.292" cy="3.292" r="3.292" style="fill:rgb(5,129,255);"/>
                    <circle cx="3.292" cy="3.292" r="2.792" style="fill:none;stroke:rgb(5,129,255);stroke-width:1px;"/>
                </g>
                <g id="Ellipse_159-2" transform="matrix(0.946,0.326,-0.326,0.946,278.08,40.085)">
                    <g opacity="0.5">
                        <circle cx="3.292" cy="3.292" r="3.292" style="fill:rgb(5,129,255);"/>
                        <circle cx="3.292" cy="3.292" r="2.792" style="fill:none;stroke:rgb(5,129,255);stroke-width:1px;"/>
                    </g>
                </g>
                <g id="Ellipse_161-2" transform="matrix(0.946,0.326,-0.326,0.946,321.093,6.158)">
                    <g opacity="0.5">
                        <circle cx="3.292" cy="3.292" r="3.292" style="fill:rgb(5,129,255);"/>
                        <circle cx="3.292" cy="3.292" r="2.792" style="fill:none;stroke:rgb(5,129,255);stroke-width:1px;"/>
                    </g>
                </g>
                <g id="Ellipse_139-2" transform="matrix(0.946,0.326,-0.326,0.946,30.058,103.219)">
                    <circle cx="3.292" cy="3.292" r="3.292" style="fill:rgb(5,129,255);"/>
                    <circle cx="3.292" cy="3.292" r="2.792" style="fill:none;stroke:rgb(5,129,255);stroke-width:1px;"/>
                </g>
                <g id="Line_78-2" transform="matrix(0.946,0.326,-0.326,0.946,34.646,165.722)">
                    <path d="M0,0L44.985,39.499" style="fill:none;fill-rule:nonzero;stroke:rgb(5,129,255);stroke-width:1px;"/>
                </g>
                <g id="Line_79-2" transform="matrix(0.946,0.326,-0.326,0.946,79.324,174.143)">
                    <path d="M0,46.083L25.236,0" style="fill:none;fill-rule:nonzero;stroke:rgb(5,129,255);stroke-width:1px;"/>
                </g>
                <g id="Line_101-2" transform="matrix(0.946,0.326,-0.326,0.946,192.183,200.239)">
                    <path d="M26.333,24.139L0,0" style="fill:none;fill-rule:nonzero;stroke:rgb(5,129,255);stroke-opacity:0.25;stroke-width:1px;"/>
                </g>
                <g id="Line_102-2" transform="matrix(0.946,0.326,-0.326,0.946,155.276,213.06)">
                    <path d="M57.055,0L0,7.68" style="fill:none;fill-rule:nonzero;stroke:rgb(5,129,255);stroke-opacity:0.25;stroke-width:1px;"/>
                </g>
                <g id="Line_103-2" transform="matrix(0.946,0.326,-0.326,0.946,148.136,163.024)">
                    <path d="M0,88.874L3.292,0" style="fill:none;fill-rule:nonzero;stroke:rgb(5,129,255);stroke-opacity:0.25;stroke-width:1px;"/>
                </g>
                <g id="Line_104-2" transform="matrix(0.946,0.326,-0.326,0.946,103.185,182.359)">
                    <path d="M36.208,55.957L0,0" style="fill:none;fill-rule:nonzero;stroke:rgb(5,129,255);stroke-opacity:0.25;stroke-width:1px;"/>
                </g>
                <g id="Line_105-2" transform="matrix(0.946,0.326,-0.326,0.946,39.901,160.569)">
                    <path d="M0,46.083L66.93,0" style="fill:none;fill-rule:nonzero;stroke:rgb(5,129,255);stroke-opacity:0.25;stroke-width:1px;"/>
                </g>
                <g id="Line_106-2" transform="matrix(0.946,0.326,-0.326,0.946,33.574,168.834)">
                    <path d="M3.292,36.208L0,0" style="fill:none;fill-rule:nonzero;stroke:rgb(5,129,255);stroke-opacity:0.25;stroke-width:1px;"/>
                </g>
                <g id="Line_107-2" transform="matrix(0.946,0.326,-0.326,0.946,9.645,167.557)">
                    <path d="M26.333,29.625L0,0" style="fill:none;fill-rule:nonzero;stroke:rgb(5,129,255);stroke-opacity:0.25;stroke-width:1px;"/>
                </g>
                <g id="Line_108-2" transform="matrix(0.946,0.326,-0.326,0.946,30.363,107.386)">
                    <path d="M2.194,0L0,63.638" style="fill:none;fill-rule:nonzero;stroke:rgb(5,129,255);stroke-opacity:0.25;stroke-width:1px;"/>
                </g>
                <g id="Line_109-2" transform="matrix(0.946,0.326,-0.326,0.946,130.99,212.821)">
                    <path d="M0,36.208L20.847,0" style="fill:none;fill-rule:nonzero;stroke:rgb(5,129,255);stroke-opacity:0.25;stroke-width:1px;"/>
                </g>
                <g id="Line_110-2" transform="matrix(0.946,0.326,-0.326,0.946,180.031,60.284)">
                    <path d="M0,0L35.111,54.86" style="fill:none;fill-rule:nonzero;stroke:rgb(5,129,255);stroke-opacity:0.25;stroke-width:1px;"/>
                </g>
                <g id="Line_111-2" transform="matrix(0.946,0.326,-0.326,0.946,156.831,90.59)">
                    <path d="M18.653,71.318L0,0" style="fill:none;fill-rule:nonzero;stroke:rgb(5,129,255);stroke-opacity:0.25;stroke-width:1px;"/>
                </g>
                <g id="Line_112-2" transform="matrix(0.946,0.326,-0.326,0.946,240.441,56.716)">
                    <path d="M63.638,38.402L0,0" style="fill:none;fill-rule:nonzero;stroke:rgb(5,129,255);stroke-opacity:0.25;stroke-width:1px;"/>
                </g>
                <g id="Line_117-2" transform="matrix(0.946,0.326,-0.326,0.946,12.86,158.22)">
                    <path d="M23.041,0L0,9.875" style="fill:none;fill-rule:nonzero;stroke:rgb(5,129,255);stroke-opacity:0.25;stroke-width:1px;"/>
                </g>
            </g>
        </g>
        <g transform="matrix(1.6338,0,0,1.6338,-224.942,-166.985)">
            <circle cx="257.228" cy="197.817" r="34.872" style="fill:rgb(204,229,255);fill-opacity:0.6;"/>
        </g>
        <g id="blue-checklist.svg" transform="matrix(1,0,0,1,195.318,163.74)">
            <g transform="matrix(1,0,0,1,-58.6065,-58.6065)">
                <g id="Group_1898" transform="matrix(1,0,0,1,-5122.35,-6220.24)">
                    <g id="Ellipse_248" transform="matrix(1,0,0,1,5132.92,6222.82)">
                        <circle cx="48.029" cy="48.029" r="48.029" style="fill:rgb(5,129,255);"/>
                    </g>
                    <g transform="matrix(1,0,0,1,5140.35,6230.24)">
                        <circle id="Ellipse_247-2" cx="40.607" cy="40.607" r="40.607" style="fill:rgb(5,129,255);"/>
                    </g>
                    <g id="Group_1900" transform="matrix(1,0,0,1,2289.83,-275.712)">
                        <g id="circle-check" transform="matrix(1,0,0,1,2869,6525)">
                            <g id="Path_419" transform="matrix(1,0,0,1,-120.782,-150.049)">
                                <path d="M152.4,168.06L141.515,178.945C140.591,179.868 139.071,179.868 138.147,178.945L132.7,173.5C132.26,173.054 132.013,172.452 132.013,171.826C132.013,170.519 133.089,169.443 134.396,169.443C135.022,169.443 135.624,169.69 136.07,170.13L139.827,173.89L149.027,164.69C149.473,164.244 150.08,163.992 150.711,163.992C152.017,163.992 153.093,165.068 153.093,166.374C153.093,167.005 152.841,167.612 152.395,168.058L152.4,168.06Z" style="fill:white;fill-rule:nonzero;"/>
                            </g>
                            <path id="Path_420" d="M21.77,0C9.827,0 0,9.827 0,21.77C0,33.713 9.827,43.54 21.77,43.54C33.713,43.54 43.54,33.713 43.54,21.77C43.54,21.769 43.54,21.769 43.54,21.768C43.54,9.826 33.714,-0 21.772,-0C21.771,-0 21.771,-0 21.77,0ZM31.618,18.011L20.733,28.9C19.809,29.823 18.289,29.823 17.365,28.9L11.922,23.457C11.482,23.011 11.235,22.409 11.235,21.783C11.235,20.476 12.311,19.4 13.618,19.4C14.244,19.4 14.846,19.647 15.292,20.087L19.049,23.847L28.249,14.647C28.695,14.201 29.302,13.949 29.933,13.949C31.239,13.949 32.315,15.025 32.315,16.331C32.315,16.962 32.063,17.569 31.617,18.015L31.618,18.011Z" style="fill:white;fill-opacity:0.4;fill-rule:nonzero;"/>
                        </g>
                        <g id="Rectangle_244" transform="matrix(1,0,0,1,2869,6524.54)">
                            <rect x="0" y="0" width="44" height="44" style="fill:none;"/>
                        </g>
                    </g>
                </g>
            </g>
        </g>
    </g>
</svg>
