<?xml version="1.0" encoding="UTF-8"?>
<svg xmlns="http://www.w3.org/2000/svg" xmlns:xlink="http://www.w3.org/1999/xlink" width="18px" height="18px" viewBox="0 0 18 18" version="1.1">
<g id="surface1">
<path style=" stroke:none;fill-rule:nonzero;fill:rgb(100%,100%,100%);fill-opacity:1;" d="M 10.6875 2.25 C 9.5625 3.488281 9.226562 4.5 9.789062 4.5 C 10.460938 4.5 11.585938 3.710938 12.375 2.8125 C 13.5 1.460938 14.175781 1.351562 15.414062 2.363281 C 16.761719 3.488281 16.425781 4.273438 13.949219 6.863281 C 12.261719 8.550781 9.898438 10.238281 8.550781 10.460938 C 6.300781 10.800781 6.300781 10.914062 8.210938 11.8125 C 11.363281 13.164062 19.011719 5.289062 17.324219 2.476562 C 15.523438 -0.335938 13.050781 -0.449219 10.6875 2.25 Z M 10.6875 2.25 "/>
<path style=" stroke:none;fill-rule:nonzero;fill:rgb(100%,100%,100%);fill-opacity:1;" d="M 2.925781 10.011719 C -0.449219 13.5 -0.449219 16.3125 2.8125 17.550781 C 4.613281 18.335938 7.875 16.199219 7.875 14.289062 C 7.875 13.726562 6.976562 13.949219 5.738281 15.074219 C 4.050781 16.648438 3.488281 16.648438 2.476562 15.414062 C 1.460938 14.175781 1.914062 13.273438 4.273438 11.023438 C 5.960938 9.449219 8.101562 7.875 9 7.539062 C 10.125 7.085938 10.011719 6.863281 8.324219 6.863281 C 7.085938 6.75 4.613281 8.210938 2.925781 10.011719 Z M 2.925781 10.011719 "/>
</g>
</svg>
