<svg xmlns="http://www.w3.org/2000/svg" width="18" height="18" viewBox="0 0 18 18">
  <g id="Group_1833" data-name="Group 1833" transform="translate(0.364)">
    <path id="eye-slash" d="M17.047,12.741l-2.8-2.2a10.652,10.652,0,0,0,2.087-3.1,1.4,1.4,0,0,0,.094-.463,1.4,1.4,0,0,0-.094-.463c-1.466-3.352-4.368-5.6-7.69-5.6A7.574,7.574,0,0,0,4.03,2.535L1.046.139A.646.646,0,0,0,.135.25a.654.654,0,0,0,.11.915L16.223,13.743a.646.646,0,0,0,.911-.111A.6.6,0,0,0,17.047,12.741Zm-6.39-5.033L8.45,5.994a2.3,2.3,0,0,0,.172-.78,1.71,1.71,0,0,0-.059-.429c.045,0,.064-.006.083-.006a2.17,2.17,0,0,1,2.162,2.174A2.122,2.122,0,0,1,10.657,7.708Zm1.049.826a3.373,3.373,0,0,0,.4-1.578,3.47,3.47,0,0,0-3.46-3.479,3.4,3.4,0,0,0-2.262.866l-1.3-1.021a6.243,6.243,0,0,1,3.56-1.149c2.689,0,5.168,1.833,6.476,4.756A8.943,8.943,0,0,1,13.214,9.7Zm-3.06,1.9a3.412,3.412,0,0,0,1.036-.176l-1.5-1.182a2.163,2.163,0,0,1-1.46-1.149L5.208,6.73c-.005.076-.022.147-.022.223A3.468,3.468,0,0,0,8.646,10.43Zm0,1.3c-2.689,0-5.168-1.833-6.476-4.756A9.517,9.517,0,0,1,3.219,5.189L2.194,4.357A10.84,10.84,0,0,0,.955,6.491a1.414,1.414,0,0,0-.118.462,1.4,1.4,0,0,0,.094.463c1.466,3.352,4.368,5.6,7.69,5.6a7.383,7.383,0,0,0,3.463-.873l-1.159-.912A5.452,5.452,0,0,1,8.646,11.733Z" transform="translate(0.003 2.2)" fill="#fff"/>
    <rect id="Rectangle_212" data-name="Rectangle 212" width="18" height="18" transform="translate(-0.364)" fill="none"/>
  </g>
</svg>
