<svg xmlns="http://www.w3.org/2000/svg" width="30" height="29.486" viewBox="0 0 30 29.486">
  <g id="Group_1924" data-name="Group 1924" transform="translate(0.069 0.044)">
    <g id="globe" transform="translate(0.194 0.06)">
      <path id="Path_410" data-name="Path 410" d="M52.5,24.815H46.4a19.805,19.805,0,0,0-2.94-8.135A14.742,14.742,0,0,0,39.037,16c2.409,0,4.477,3.628,5.384,8.815H33.654C34.561,19.628,36.629,16,39.038,16a14.68,14.68,0,0,0-4.426.681,19.77,19.77,0,0,0-2.939,8.133h-6.1a14.624,14.624,0,0,0-.686,1.959h6.526a36,36,0,0,0,0,7.835H24.89a14.573,14.573,0,0,0,.686,1.959H31.67A19.8,19.8,0,0,0,34.61,44.7a14.684,14.684,0,0,0,4.426.679c-2.409,0-4.477-3.628-5.384-8.815H44.42c-.907,5.186-2.975,8.815-5.384,8.815a14.68,14.68,0,0,0,4.426-.681A19.763,19.763,0,0,0,46.4,36.567h6.1a14.624,14.624,0,0,0,.686-1.959H46.658a36.08,36.08,0,0,0,0-7.835h6.525A14.341,14.341,0,0,0,52.5,24.815Zm-7.8,9.794H33.381a36.5,36.5,0,0,1-.22-3.918,35.628,35.628,0,0,1,.222-3.918H44.694a35.627,35.627,0,0,1,.222,3.918A36.486,36.486,0,0,1,44.693,34.608Z" transform="translate(-24.346 -16)" fill="#fff"/>
      <path id="Path_411" data-name="Path 411" d="M36.018,36.567c-.907,5.186-2.975,8.815-5.384,8.815s-4.422-3.63-5.334-8.815Zm2.5-5.876a37.581,37.581,0,0,1-.213,3.918h6.525a14.367,14.367,0,0,0,0-7.835H38.308A37.97,37.97,0,0,1,38.521,30.691Zm-1.959,0a35.629,35.629,0,0,0-.222-3.918H25.03a36.5,36.5,0,0,0-.22,3.918,35.628,35.628,0,0,0,.222,3.918H36.344A36.878,36.878,0,0,0,36.563,30.691Zm1.487,5.876A19.8,19.8,0,0,1,35.11,44.7a14.748,14.748,0,0,0,9.037-8.135Zm0-11.753h6.1a14.741,14.741,0,0,0-9.035-8.135A19.806,19.806,0,0,1,38.05,24.815ZM23.322,36.567h-6.1A14.741,14.741,0,0,0,26.261,44.7,19.8,19.8,0,0,1,23.322,36.567Zm12.7-11.753C35.111,19.628,33.043,16,30.634,16s-4.422,3.628-5.334,8.815ZM16.539,26.773a14.366,14.366,0,0,0,0,7.835h6.526a38.565,38.565,0,0,1-.214-3.918,37.714,37.714,0,0,1,.214-3.918Zm6.783-1.959a19.787,19.787,0,0,1,2.938-8.133,14.722,14.722,0,0,0-9.035,8.133Z" transform="translate(-15.995 -16)" fill="#fff" opacity="0.4"/>
    </g>
    <rect id="Rectangle_229" data-name="Rectangle 229" width="30" height="29" transform="translate(-0.069 -0.044)" fill="none"/>
  </g>
</svg>
