<svg id="Group_1877" data-name="Group 1877" xmlns="http://www.w3.org/2000/svg" width="29.501" height="29.502" viewBox="0 0 29.501 29.502">
  <g id="bank" transform="translate(0)">
    <path id="Path_406" data-name="Path 406" d="M28.384,5.681a1.844,1.844,0,0,1-.726,3.539V9.68a1.38,1.38,0,0,1-1.383,1.383H3.227A1.381,1.381,0,0,1,1.844,9.68V9.219A1.9,1.9,0,0,1,.038,7.744a1.845,1.845,0,0,1,1.08-2.063L14.025.149a1.843,1.843,0,0,1,1.452,0ZM14.751,7.375a1.844,1.844,0,1,0-1.844-1.844A1.842,1.842,0,0,0,14.751,7.375Z" transform="translate(0 0)" fill="#fff"/>
    <path id="Path_407" data-name="Path 407" d="M7.321,235.063h2.3V224h3.688v11.063h2.818V224h3.688v11.063h2.3V224h3.688v11.311c.035.017.069-.012.1.063l2.766,1.844a1.845,1.845,0,0,1-1.026,3.377H1.789a1.843,1.843,0,0,1-.971-3.377l2.766-1.844c.033-.075.067-.046.049-.063V224H7.321Z" transform="translate(0.003 -211.093)" fill="#fff" opacity="0.4"/>
  </g>
  <rect id="Rectangle_227" data-name="Rectangle 227" width="29.442" height="29.442" transform="translate(0)" fill="none"/>
</svg>
