<svg xmlns="http://www.w3.org/2000/svg" width="30" height="29.546" viewBox="0 0 30 29.546">
  <g id="Group_1878" data-name="Group 1878" transform="translate(0.46 0.044)">
    <g id="mobile-notch" transform="translate(4.686)">
      <path id="Path_408" data-name="Path 408" d="M91.985,64H90.141v.922a.923.923,0,0,1-.922.922H83.688a.923.923,0,0,1-.922-.922V64H80.922a.923.923,0,0,0-.922.922V85.2a.924.924,0,0,0,.922.922H91.985a.923.923,0,0,0,.922-.922V64.922A.924.924,0,0,0,91.985,64ZM89.219,84.283H83.688a.922.922,0,1,1,0-1.844h5.532a.922.922,0,0,1,0,1.844Z" transform="translate(-76.312 -60.312)" fill="#fff"/>
      <path id="Path_409" data-name="Path 409" d="M31.673,0H20.61A4.61,4.61,0,0,0,16,4.61V24.892a4.609,4.609,0,0,0,4.61,4.61H31.673a4.61,4.61,0,0,0,4.61-4.61V4.61A4.609,4.609,0,0,0,31.673,0Zm.922,24.892a.923.923,0,0,1-.922.922H20.61a.923.923,0,0,1-.922-.922V4.61a.923.923,0,0,1,.922-.922h1.844V4.61a.923.923,0,0,0,.922.922h5.532a.923.923,0,0,0,.922-.922V3.688h1.844a.923.923,0,0,1,.922.922Z" transform="translate(-16)" fill="#fff" opacity="0.4"/>
    </g>
    <rect id="Rectangle_228" data-name="Rectangle 228" width="30" height="29" transform="translate(-0.46 -0.044)" fill="none"/>
  </g>
</svg>
