<svg xmlns="http://www.w3.org/2000/svg" width="30" height="29" viewBox="0 0 30 29">
  <g id="Group_1875" data-name="Group 1875" transform="translate(-0.299 0.044)">
    <g id="id-card-clip" transform="translate(0.315 1.61)">
      <path id="Path_402" data-name="Path 402" d="M184.988,1.634A1.544,1.544,0,0,0,183.354,0h-3.268a1.544,1.544,0,0,0-1.634,1.634v4.9h6.537ZM181.72,17.977a3.268,3.268,0,1,0-3.268-3.268A3.269,3.269,0,0,0,181.72,17.977Zm3.268,1.634h-6.537A2.451,2.451,0,0,0,176,22.062a.82.82,0,0,0,.817.817h9.805a.817.817,0,0,0,.817-.817A2.452,2.452,0,0,0,184.988,19.611Z" transform="translate(-167.012 0)" fill="#fff"/>
      <path id="Path_403" data-name="Path 403" d="M26.965,64H17.977v3.268h.817a.817.817,0,1,1,0,1.634H10.623a.817.817,0,1,1,0-1.634h.817V64H2.451A2.513,2.513,0,0,0,0,66.451V84.428a2.513,2.513,0,0,0,2.451,2.451H26.965a2.513,2.513,0,0,0,2.451-2.451V66.451A2.513,2.513,0,0,0,26.965,64ZM14.708,72.171A3.268,3.268,0,1,1,11.44,75.44,3.269,3.269,0,0,1,14.708,72.171Zm4.9,11.44H9.805a.817.817,0,0,1-.817-.817,2.452,2.452,0,0,1,2.451-2.451h6.537a2.451,2.451,0,0,1,2.451,2.451A.82.82,0,0,1,19.611,83.611Z" transform="translate(0 -60.732)" fill="#fff" opacity="0.4"/>
    </g>
    <rect id="Rectangle_225" data-name="Rectangle 225" width="30" height="29" transform="translate(0.299 -0.044)" fill="none"/>
  </g>
</svg>
