<svg xmlns="http://www.w3.org/2000/svg" width="29.661" height="29" viewBox="0 0 29.661 29">
  <g id="Group_1874" data-name="Group 1874" transform="translate(0.255 0.044)">
    <g id="store" transform="translate(0.027 0.69)">
      <path id="Path_400" data-name="Path 400" d="M41.9,12.045a5.108,5.108,0,0,1-.654.043,4.746,4.746,0,0,1-3.521-1.565,4.737,4.737,0,0,1-7.036,0,4.745,4.745,0,0,1-7.043,0,4.728,4.728,0,0,1-3.52,1.565,5.072,5.072,0,0,1-.655-.043,4.208,4.208,0,0,1-2.8-6.448l3.1-4.9A1.527,1.527,0,0,1,21.059-.01H40.33A1.527,1.527,0,0,1,41.622.7l3.1,4.9A4.206,4.206,0,0,1,41.9,12.045Z" transform="translate(-16.006 0.01)" fill="#fff"/>
      <path id="Path_401" data-name="Path 401" d="M88.224,216.53l.005,13.243a2.583,2.583,0,0,1-2.544,2.592H66.621a2.551,2.551,0,0,1-2.544-2.592L64.03,216.53a3.848,3.848,0,0,0,.875.237,5.14,5.14,0,0,0,.655.044,4.715,4.715,0,0,0,1.92-.41v9.052H84.768V216.4a4.7,4.7,0,0,0,1.912.41,5,5,0,0,0,.653-.043A3.874,3.874,0,0,0,88.224,216.53Z" transform="translate(-61.436 -204.712)" fill="#fff" opacity="0.4"/>
    </g>
    <rect id="Rectangle_224" data-name="Rectangle 224" width="29" height="29" transform="translate(-0.255 -0.044)" fill="none"/>
  </g>
</svg>
