<svg id="sparkles" xmlns="http://www.w3.org/2000/svg" width="29.502" height="29.502" viewBox="0 0 29.502 29.502">
  <path id="Path_412" data-name="Path 412" d="M22.127,75.068a.928.928,0,0,0-.511-.829L15.133,71l-3.246-6.5a.952.952,0,0,0-1.642,0L7,70.995.511,74.239a.933.933,0,0,0-.511.83.92.92,0,0,0,.511.829l6.482,3.248,3.249,6.494a.868.868,0,0,0,.821.51.922.922,0,0,0,.821-.512l3.249-6.494,6.482-3.248A.914.914,0,0,0,22.127,75.068Z" transform="translate(0 -60.341)" fill="#fff"/>
  <path id="Path_413" data-name="Path 413" d="M320.254,5.941l3.434,1.435,1.434,3.436a.46.46,0,0,0,.821,0l1.433-3.436,3.436-1.434a.459.459,0,0,0,.252-.41.468.468,0,0,0-.252-.411l-3.436-1.433L325.942.252a.46.46,0,0,0-.821,0l-1.433,3.436-3.436,1.434a.473.473,0,0,0-.252.41A.465.465,0,0,0,320.254,5.941Zm10.556,17.62-3.434-1.435-1.434-3.436a.46.46,0,0,0-.821,0l-1.433,3.436-3.436,1.434a.477.477,0,0,0-.252.41.468.468,0,0,0,.252.411l3.436,1.433,1.434,3.436a.46.46,0,0,0,.821,0l1.433-3.436,3.436-1.434a.458.458,0,0,0,0-.819Z" transform="translate(-301.561 0)" fill="#fff" opacity="0.4"/>
</svg>
