<svg xmlns="http://www.w3.org/2000/svg" width="18" height="18" viewBox="0 0 18 18">
  <g id="Group_1838" data-name="Group 1838" transform="translate(0.294)">
    <path id="lock-keyhole" d="M12.994,6.5H11.911V4.3a4.331,4.331,0,0,0-8.663,0V6.5H2.166A2.167,2.167,0,0,0,0,8.663v6.467a2.166,2.166,0,0,0,2.166,2.166H12.994a2.166,2.166,0,0,0,2.166-2.166V8.663A2.168,2.168,0,0,0,12.994,6.5ZM4.873,4.331a2.707,2.707,0,1,1,5.414,0V6.5H4.873ZM13.535,15.16a.542.542,0,0,1-.541.541H2.166a.542.542,0,0,1-.541-.541v-6.5a.542.542,0,0,1,.541-.541H12.994a.542.542,0,0,1,.541.541ZM7.58,10.287a.812.812,0,0,0-.812.812v1.624a.813.813,0,0,0,1.624,0V11.1A.812.812,0,0,0,7.58,10.287Z" transform="translate(1.368 0.171)" fill="#fff"/>
    <g id="Group_1832" data-name="Group 1832" transform="translate(0 0)">
      <rect id="Rectangle_211" data-name="Rectangle 211" width="18" height="18" transform="translate(-0.294)" fill="none"/>
    </g>
  </g>
</svg>
