<svg xmlns="http://www.w3.org/2000/svg" width="21.702" height="22" viewBox="0 0 21.702 22">
  <g id="Group_1921" data-name="Group 1921" transform="translate(18774.533 7510)">
    <rect id="Rectangle_260" data-name="Rectangle 260" width="21.702" height="21.702" transform="translate(-18774.533 -7510)" fill="none"/>
    <g id="file-contract" transform="translate(-18772.08 -7510)">
      <path id="Path_424" data-name="Path 424" d="M72.25,0V5.5h5.5Zm2.063,16.5h-2.03a.5.5,0,0,1-.435-.279,1.925,1.925,0,0,0-2.836-.607l-.6-1.789a1.029,1.029,0,0,0-1.955,0l-.784,2.346a.48.48,0,0,1-.456.327h-.532a.688.688,0,0,0,0,1.375h.532a1.855,1.855,0,0,0,1.762-1.268l.456-1.371.726,2.166a.681.681,0,0,0,.6.473h.047a.678.678,0,0,0,.612-.381l.333-.661a.48.48,0,0,1,.865.016,1.849,1.849,0,0,0,1.662,1.026h2.028a.688.688,0,0,0,0-1.375Z" transform="translate(-61.25)" fill="#fff" opacity="0.4"/>
      <path id="Path_425" data-name="Path 425" d="M11,0H2.063A2.062,2.062,0,0,0,0,2.063V19.938A2.063,2.063,0,0,0,2.063,22H14.438A2.062,2.062,0,0,0,16.5,19.938V5.5H11ZM2.75,3.094a.346.346,0,0,1,.344-.344H6.531a.346.346,0,0,1,.344.344v.688a.345.345,0,0,1-.344.344H3.094a.346.346,0,0,1-.344-.344Zm0,2.75A.346.346,0,0,1,3.094,5.5H6.531a.345.345,0,0,1,.344.344v.688a.345.345,0,0,1-.344.344H3.094a.346.346,0,0,1-.344-.344ZM10.6,16.221a.5.5,0,0,0,.435.279h2.032a.688.688,0,0,1,0,1.375h-2.03a1.849,1.849,0,0,1-1.66-1.026.48.48,0,0,0-.865-.016l-.333.661a.726.726,0,0,1-.612.381H7.515a.681.681,0,0,1-.6-.473l-.726-2.166-.455,1.371a1.859,1.859,0,0,1-1.763,1.268H3.438a.688.688,0,0,1,0-1.375h.532a.48.48,0,0,0,.456-.328l.784-2.347a1.029,1.029,0,0,1,1.955,0l.6,1.789A1.92,1.92,0,0,1,10.6,16.221Z" fill="#fff"/>
    </g>
  </g>
</svg>
