<svg xmlns="http://www.w3.org/2000/svg" xmlns:xlink="http://www.w3.org/1999/xlink" width="142.608" height="40.941" viewBox="0 0 142.608 40.941">
  <defs>
    <filter id="Rectangle_116" x="0" y="0" width="142.608" height="40.941" filterUnits="userSpaceOnUse">
      <feOffset dy="3" input="SourceAlpha"/>
      <feGaussianBlur stdDeviation="3" result="blur"/>
      <feFlood flood-color="#0581ff" flood-opacity="0.161"/>
      <feComposite operator="in" in2="blur"/>
      <feComposite in="SourceGraphic"/>
    </filter>
  </defs>
  <g id="Group_1913" data-name="Group 1913" transform="translate(-3416 -6529)">
    <g transform="matrix(1, 0, 0, 1, 3416, 6529)" filter="url(#Rectangle_116)">
      <rect id="Rectangle_116-2" data-name="Rectangle 116" width="124.608" height="22.941" rx="11.47" transform="translate(9 6)" fill="#0581ff"/>
    </g>
    <g id="Group_1912" data-name="Group 1912" transform="translate(-0.992 0.97)">
      <text id="user_s_prefer" data-name="user’s prefer" transform="translate(3436.524 6549.5)" fill="#fff" font-size="12" font-family="Montserrat-Bold, Montserrat" font-weight="700" letter-spacing="0.035em"><tspan x="0" y="0">User’s Prefer</tspan></text>
      <g id="Group_1911" data-name="Group 1911" transform="translate(3528.773 6538.714)">
        <path id="thumbs-up" d="M2.967,41.622V36.43a.724.724,0,0,0-.742-.721H.742A.738.738,0,0,0,0,36.43V41.6a.724.724,0,0,0,.742.721H2.225A.673.673,0,0,0,2.967,41.622Zm8.9-5.169a1.112,1.112,0,0,0-1.113-1.112H7.36a5.658,5.658,0,0,0,.8-2.226A1.121,1.121,0,0,0,7.012,32C5.549,32,6.4,33.765,4.5,35.282l-.378.3a1.117,1.117,0,0,0-.415.867h0l0,3.709a1.112,1.112,0,0,0,.445.89l.791.593a3.7,3.7,0,0,0,2.224.742H8.531a1.106,1.106,0,0,0,1.084-1.357A1.1,1.1,0,0,0,10.22,39.4a1.105,1.105,0,0,0,.612-1.839A1.109,1.109,0,0,0,11.869,36.453Z" transform="translate(0.427 -30.819)" fill="#fff"/>
        <rect id="Rectangle_256" data-name="Rectangle 256" width="12" height="12" transform="translate(0.227 0.286)" fill="none"/>
      </g>
    </g>
  </g>
</svg>
