<svg id="Group_1834" data-name="Group 1834" xmlns="http://www.w3.org/2000/svg" width="17" height="17.295" viewBox="0 0 17 17.295">
  <path id="shield-check" d="M31.218,2.834,24.732.132a1.617,1.617,0,0,0-1.246,0L17,2.834A1.61,1.61,0,0,0,16,4.3c0,8.725,6.4,13,8.1,13,1.665,0,8.11-4.212,8.11-13A1.61,1.61,0,0,0,31.218,2.834ZM24.107,15.68c-3.294-1.371-6.486-5.631-6.486-11.35l6.486-2.7,6.486,2.7C30.593,10.2,27.269,14.363,24.107,15.68ZM22.219,8.35a.725.725,0,0,0-.544-.267.811.811,0,0,0-.811.811.718.718,0,0,0,.236.574l1.621,1.621a.706.706,0,0,0,.574.236.816.816,0,0,0,.615-.283L27.155,7.26A.811.811,0,0,0,25.924,6.2L23.252,9.354Z" transform="translate(-15.46 -0.007)" fill="#fff"/>
  <rect id="Rectangle_213" data-name="Rectangle 213" width="17" height="17" fill="none"/>
</svg>
