<svg xmlns="http://www.w3.org/2000/svg" width="128" height="128" viewBox="0 0 128 128">
  <g id="outline-eye-slash" transform="translate(-2027 -5874)">
    <path id="eye-slash" d="M126.19,94.3l-20.705-16.3A78.839,78.839,0,0,0,120.93,55.056a10.373,10.373,0,0,0,.694-3.423,10.35,10.35,0,0,0-.694-3.423C110.077,23.4,88.6,6.78,64.016,6.78A56.059,56.059,0,0,0,29.847,18.765L7.761,1.028a4.784,4.784,0,0,0-6.74.819,4.837,4.837,0,0,0,.814,6.774l118.25,93.09a4.782,4.782,0,0,0,6.74-.819A4.475,4.475,0,0,0,126.19,94.3ZM78.9,57.048,62.563,44.364a17.01,17.01,0,0,0,1.27-5.769,12.653,12.653,0,0,0-.437-3.172c.337,0,.477-.044.617-.044a16.064,16.064,0,0,1,16,16.091A15.7,15.7,0,0,1,78.9,57.048Zm7.762,6.111A24.964,24.964,0,0,0,89.62,51.48,25.684,25.684,0,0,0,64.014,25.73a25.178,25.178,0,0,0-16.744,6.412l-9.6-7.558a46.2,46.2,0,0,1,26.347-8.5c19.9,0,38.25,13.568,47.932,35.2A66.187,66.187,0,0,1,97.82,71.762ZM64.014,77.189a25.253,25.253,0,0,0,7.664-1.3l-11.1-8.749a16.008,16.008,0,0,1-10.8-8.5l-11.2-8.825c-.04.563-.16,1.085-.16,1.648A25.666,25.666,0,0,0,64.014,77.189Zm0,9.649c-19.9,0-38.25-13.568-47.932-35.2A70.434,70.434,0,0,1,23.845,38.4l-7.588-6.159a80.226,80.226,0,0,0-9.164,15.8,10.466,10.466,0,0,0-.874,3.419,10.35,10.35,0,0,0,.694,3.423C17.766,79.688,39.241,96.312,63.827,96.312a54.643,54.643,0,0,0,25.627-6.461L80.878,83.1A40.353,40.353,0,0,1,64.014,86.838Z" transform="translate(2027.003 5887)"/>
    <rect id="Rectangle_212" data-name="Rectangle 212" width="128" height="128" transform="translate(2027 5874)" fill="none"/>
  </g>
</svg>
