<svg xmlns="http://www.w3.org/2000/svg" width="128" height="128" viewBox="0 0 128 128">
  <g id="outline-shield-check" transform="translate(-2133 -5776)">
    <path id="shield-check" d="M128.626,20.933l-48-20a11.964,11.964,0,0,0-9.225,0l-48,20A11.913,11.913,0,0,0,16,31.781c0,64.576,47.351,96.226,59.976,96.226C88.3,128.007,136,96.831,136,31.781A11.918,11.918,0,0,0,128.626,20.933ZM76,116.007c-24.375-10.15-48-41.676-48-84l48-20,48,20C124,75.456,99.4,106.257,76,116.007ZM62.026,61.756A5.367,5.367,0,0,0,58,59.781a6,6,0,0,0-6,6,5.312,5.312,0,0,0,1.75,4.25l12,12A5.225,5.225,0,0,0,70,83.781a6.041,6.041,0,0,0,4.555-2.094l24-28A5.983,5.983,0,0,0,100,49.782c0-1.851-1.448-6-6-6a6,6,0,0,0-4.56,2.091L69.676,69.181Z" transform="translate(2121 5775.993)"/>
    <rect id="Rectangle_213" data-name="Rectangle 213" width="128" height="128" transform="translate(2133 5776)" fill="none"/>
  </g>
</svg>
