<svg xmlns="http://www.w3.org/2000/svg" width="128" height="128" viewBox="0 0 128 128">
  <g id="outline-circle-question" transform="translate(-1720 -5504)">
    <path id="circle-question" d="M63.844,0a63.844,63.844,0,1,0,63.844,63.844A63.839,63.839,0,0,0,63.844,0Zm0,115.717a51.873,51.873,0,1,1,51.873-51.873A51.931,51.931,0,0,1,63.844,115.717Zm0-31.922a7.878,7.878,0,0,0-7.98,7.98,7.745,7.745,0,0,0,7.98,7.98,7.98,7.98,0,0,0,0-15.961ZM72.1,31.922H59.355A17.35,17.35,0,0,0,41.9,49.379a5.985,5.985,0,0,0,11.971,0,5.346,5.346,0,0,1,5.262-5.487H71.874a5.789,5.789,0,0,1,5.935,5.487,5,5,0,0,1-2.743,4.514L60.851,62.6a6.151,6.151,0,0,0-2.993,5.237v3.99a5.985,5.985,0,0,0,11.971,0v-.5l11.248-6.983a17.794,17.794,0,0,0,8.479-14.963A17.075,17.075,0,0,0,72.1,31.922Z" transform="translate(1720 5504)"/>
    <rect id="Rectangle_239" data-name="Rectangle 239" width="128" height="128" transform="translate(1720 5504)" fill="none"/>
  </g>
</svg>
